<?xml version="1.0" encoding="utf-8"?>
<!-- Generator: Adobe Illustrator 23.0.1, SVG Export Plug-In . SVG Version: 6.00 Build 0)  -->
<svg version="1.1" id="レイヤー_1" xmlns="http://www.w3.org/2000/svg" xmlns:xlink="http://www.w3.org/1999/xlink" x="0px"
	 y="0px" viewBox="0 0 36 36" style="enable-background:new 0 0 36 36;" xml:space="preserve">
<style type="text/css">
	.st0{fill:#2AB5EA;}
	.st1{fill:#FFFFFF;}
</style>
<g>
	<path class="st0" d="M25.2,31.2c-0.3,0-0.6-0.1-0.9-0.2l-6.4-3.4L11.7,31c-0.3,0.1-0.6,0.2-0.9,0.2c-0.6,0-1.1-0.3-1.5-0.7
		c-0.4-0.4-0.5-1-0.4-1.6l1.2-7.1L5,16.9c-0.5-0.5-0.7-1.3-0.5-2s0.8-1.2,1.5-1.3l7.1-1l3.1-6.4c0.3-0.7,1-1.1,1.7-1.1
		c0.7,0,1.4,0.4,1.7,1.1l3.2,6.4l7,1c0.7,0.1,1.3,0.6,1.5,1.3s0,1.4-0.5,2l-5.2,5l1.2,7c0.1,0.6-0.1,1.1-0.4,1.5
		C26.3,31,25.7,31.2,25.2,31.2z"/>
	<path class="st1" d="M18,6.2c0.3,0,0.7,0.2,0.8,0.5l3.2,6.4c0.1,0.3,0.4,0.5,0.7,0.5l7.1,1c0.7,0.1,1,1,0.5,1.6l-5.2,5
		c-0.2,0.2-0.3,0.5-0.3,0.8l1.2,7.1c0.1,0.6-0.4,1.1-0.9,1.1c-0.1,0-0.3,0-0.4-0.1l-6.4-3.4c-0.1-0.1-0.3-0.1-0.4-0.1
		c-0.1,0-0.3,0-0.4,0.1l-6.4,3.3c-0.1,0.1-0.3,0.1-0.4,0.1c-0.5,0-1-0.5-0.9-1.1l1.2-7.1c0.1-0.3,0-0.6-0.3-0.8l-5.1-5
		c-0.5-0.5-0.2-1.4,0.5-1.6l7.1-1c0.3,0,0.6-0.2,0.7-0.5l3.2-6.4C17.4,6.4,17.7,6.2,18,6.2 M18,4.2C18,4.2,18,4.2,18,4.2
		c-1.1,0-2.1,0.6-2.6,1.6l-2.9,5.9l-6.5,0.9c-1.1,0.2-2,0.9-2.4,2c-0.3,1.1-0.1,2.2,0.7,3L9,22.3l-1.1,6.5c-0.1,0.8,0.1,1.7,0.6,2.4
		c0.6,0.7,1.4,1,2.2,1c0.5,0,0.9-0.1,1.4-0.3l5.9-3.1l5.8,3.1c0.4,0.2,0.9,0.3,1.4,0.3c0.9,0,1.7-0.4,2.2-1c0.6-0.7,0.8-1.5,0.6-2.4
		l-1.1-6.5l4.7-4.6c0.8-0.8,1.1-1.9,0.7-3c-0.3-1.1-1.2-1.8-2.3-2l-6.5-1l-2.9-5.9C20.1,4.8,19.1,4.2,18,4.2L18,4.2z"/>
</g>
</svg>
