<?xml version="1.0" encoding="utf-8"?>
<!-- Generator: Adobe Illustrator 23.0.1, SVG Export Plug-In . SVG Version: 6.00 Build 0)  -->
<svg version="1.1"
	 id="svg8" inkscape:export-filename="C:\Users\syuilo\projects\misskey\assets\favicon\32.png" inkscape:export-xdpi="6" inkscape:export-ydpi="6" inkscape:version="0.92.1 r15371" sodipodi:docname="mi.svg" xmlns:cc="http://creativecommons.org/ns#" xmlns:dc="http://purl.org/dc/elements/1.1/" xmlns:inkscape="http://www.inkscape.org/namespaces/inkscape" xmlns:rdf="http://www.w3.org/1999/02/22-rdf-syntax-ns#" xmlns:sodipodi="http://sodipodi.sourceforge.net/DTD/sodipodi-0.dtd" xmlns:svg="http://www.w3.org/2000/svg"
	 xmlns="http://www.w3.org/2000/svg" xmlns:xlink="http://www.w3.org/1999/xlink" x="0px" y="0px" viewBox="0 0 512 512"
	 style="enable-background:new 0 0 512 512;" xml:space="preserve">
<style type="text/css">
	.st0{fill:#FFFFFF;}
	.st1{fill:#3099B4;}
	.st2{fill:#24829A;}
	.st3{fill:#3494B0;}
	.st4{fill:#50A6BF;}
	.st5{fill:#3199B4;}
	.st6{fill:#2A8EA7;}
	.st7{fill:#318CA8;}
	.st8{fill:#3793B0;}
	.st9{fill:#69B4C9;}
	.st10{fill:#66B3C8;}
	.st11{fill:#AAD3E1;}
	.st12{fill:#9BCBDA;}
	.st13{fill:#74B5CC;}
	.st14{fill:#A0CAE3;}
	.st15{fill:#4199B9;}
	.st16{fill:#3F97B7;}
	.st17{fill:#DCE8F7;}
	.st18{fill:#ECF2FB;}
	.st19{fill:#65B2C7;}
	.st20{fill:#53A7BE;}
	.st21{fill:#3598B4;}
	.st22{fill:#F7FAFD;}
	.st23{fill:#CDDFF4;}
	.st24{fill:#F4F7FC;}
	.st25{fill:#F8FAFD;}
	.st26{fill:#C1D9F2;}
	.st27{fill:#A7CCE5;}
	.st28{fill:#58ACC2;}
</style>
<defs>
	
	
		<inkscape:path-effect  effect="simplify" helper_size="0" id="path-effect5115" is_visible="true" simplifyJustCoalesce="false" simplify_individual_paths="false" simplify_just_coalesce="false" simplifyindividualpaths="false" smooth_angles="360" steps="1" threshold="0.000408163">
		</inkscape:path-effect>
	
		<inkscape:path-effect  effect="simplify" helper_size="0" id="path-effect5111" is_visible="true" simplifyJustCoalesce="false" simplify_individual_paths="false" simplify_just_coalesce="false" simplifyindividualpaths="false" smooth_angles="360" steps="1" threshold="0.000408163">
		</inkscape:path-effect>
	
		<inkscape:path-effect  effect="simplify" helper_size="0" id="path-effect5104" is_visible="true" simplifyJustCoalesce="false" simplify_individual_paths="false" simplify_just_coalesce="false" simplifyindividualpaths="false" smooth_angles="360" steps="1" threshold="0.000408163">
		</inkscape:path-effect>
</defs>
<sodipodi:namedview  bordercolor="#666666" borderopacity="1.0" fit-margin-bottom="0" fit-margin-left="0" fit-margin-right="0" fit-margin-top="0" guidetolerance="1" id="base" inkscape:bbox-nodes="true" inkscape:current-layer="g4502" inkscape:cx="232.39583" inkscape:cy="251.50613" inkscape:document-units="px" inkscape:object-paths="true" inkscape:pageopacity="0.0" inkscape:pageshadow="2" inkscape:snap-bbox="true" inkscape:snap-bbox-edge-midpoints="false" inkscape:snap-center="true" inkscape:snap-midpoints="true" inkscape:snap-nodes="false" inkscape:snap-object-midpoints="true" inkscape:snap-others="false" inkscape:snap-page="true" inkscape:snap-smooth-nodes="true" inkscape:window-height="1027" inkscape:window-maximized="1" inkscape:window-width="1920" inkscape:window-x="-8" inkscape:window-y="1072" inkscape:zoom="1.4142136" objecttolerance="1" pagecolor="#ffffff" showgrid="true" units="px">
	
		<inkscape:grid  empcolor="#ff3fff" empopacity="0.25098039" empspacing="4" id="grid4504" spacingx="4.2333334" spacingy="4.2333334" type="xygrid">
		</inkscape:grid>
</sodipodi:namedview>
<g>
	<g>
		<path class="st0" d="M512.4,512.4c-170.7,0-341.3,0-512,0c0-170.7,0-341.3,0-512c170.7,0,341.3,0,512,0
			C512.4,171.1,512.4,341.7,512.4,512.4z M418.6,450.1c10.2,0,20.3,0,30.5,0c0.2,0,0.4,0,0.6,0c0.1,0,0.3,0,0.4-0.1
			c0.2,0,0.4-0.3,0.4-0.4c0.1-0.7,0.1-1.5,0.1-2.2c0-9.7,0-19.5,0-29.2c0.8,0,1.6-0.1,2.5-0.1c8.9,0,17.7,0,26.6,0
			c0.6,0,1.2,0,1.8,0c0.2,0,0.4,0,0.6,0c0.2,0,0.5-0.3,0.5-0.5c0-0.8,0-1.6,0-2.5c0-62.2,0-124.5,0-186.7c0-0.6,0-1.2,0-1.8
			c0-0.2,0-0.4,0-0.6c0-0.2-0.3-0.5-0.5-0.6c-0.7,0-1.4,0-2,0c-9,0-18,0-27,0c-0.8,0-1.6,0-2.5,0c0-0.8,0-1.6,0-2.5
			c0-8.9,0-17.7,0-26.6c0-0.6,0-1.2,0-1.8c0-0.2,0-0.4-0.1-0.6c0-0.2-0.2-0.4-0.4-0.4c-0.1,0-0.3-0.1-0.4-0.1c-0.3,0-0.5,0-0.8,0
			c-10.1,0-20.2,0-30.3,0c-0.2-0.8-0.1-1.6-0.1-2.4c0-9,0-17.9,0-26.9c0-0.7,0-1.4,0-2c0-0.2-0.1-0.4-0.1-0.6
			c0.1-0.4,0.1-0.8,0.1-1.2c0-9.9,0-19.8,0-29.6c0-0.3,0-0.5,0-0.8c0-0.3-0.3-0.5-0.5-0.6c-0.7,0-1.4-0.1-2-0.1c-9,0-18,0-27,0
			c-0.5,0-1.1,0-1.6,0c-0.3,0-0.7-0.1-1-0.1l0,0c0-0.9,0-1.8,0-2.7c0-9.9,0-19.8,0-29.7c0-9.6,0-19.2,0-28.9c0-0.6,0-1.2,0-1.8
			c0-0.2-0.1-0.4-0.1-0.6c0-0.1-0.3-0.4-0.4-0.4c-0.7-0.1-1.4-0.1-2-0.1c-9,0-18,0-27,0c-0.8,0-1.6,0.1-2.5-0.1c0-1.8,0-3.7,0-5.5
			c0-8,0-16,0-23.9c0-0.6,0-1.2,0-1.8c0-0.4-0.2-0.7-0.8-0.7c-0.6,0-1.2,0-1.8,0c-8.5,0-16.9,0-25.4,0c-1,0-2,0-3.1,0
			c-0.2,0-0.4,0-0.6,0.1c-0.1,0-0.4,0.3-0.4,0.4c-0.1,0.6-0.1,1.2-0.1,1.8c0,9.3,0,18.6,0,27.8c0,0.5,0,1.1,0,1.6
			c0,0.2,0.1,0.4,0.1,0.6c0,0.2-0.1,0.4-0.1,0.6c0,0.5,0,1.1,0,1.6c0,9.2,0,18.3,0,27.5c0,0.5,0,1.1,0,1.6c0,0.2,0.1,0.4,0.1,0.6
			c0,0.2-0.1,0.4-0.1,0.6c0,0.7,0,1.4,0,2c0,19.5,0,39.1,0,58.6c0,0.6,0,1.2,0,1.8c0,0.3-0.1,0.5-0.1,0.8c-0.2,0-0.4,0.1-0.6,0.1
			c-0.6,0-1.2,0-1.8,0c-8.8,0-17.7,0-26.5,0c-0.7,0-1.4,0-2,0c-0.2,0-0.4,0.1-0.6,0.1c-0.3-0.1-0.5-0.2-0.8-0.2c-0.7,0-1.5,0-2.2,0
			c-30.2,0-60.4,0-90.6,0c-0.7,0-1.5,0-2.2,0c-0.3,0-0.5-0.1-0.8-0.1c0-0.7,0-1.5,0-2.2c0-19.7,0-39.5,0-59.2c0-0.5,0-1.1,0-1.6
			c0-0.3-0.1-0.5-0.1-0.8c0.1-0.3,0.1-0.7,0.1-1c0-10,0-20,0-29.9c0-0.3,0-0.7-0.1-1c0.2-0.7,0.1-1.5,0.1-2.2c0-9.2,0-18.4,0-27.6
			c0-0.5,0-1.1,0-1.6c0-0.1,0-0.3-0.1-0.4c0-0.1-0.3-0.4-0.4-0.4c-0.3,0-0.7-0.1-1-0.1c-9.8,0-19.5,0-29.3,0c-0.3,0-0.5,0-0.8,0
			c-0.2,0-0.5,0.3-0.6,0.5c0,0.7-0.1,1.4-0.1,2c0,8.9,0,17.7,0,26.6c0,0.6,0,1.2,0,1.8c0,0.2,0,0.4-0.1,0.6c0,0.1-0.3,0.4-0.4,0.4
			c-0.7,0.1-1.4,0.1-2,0.1c-8.9,0-17.9,0-26.8,0c-0.6,0-1.2,0-1.8,0c-0.1,0-0.3,0-0.4,0.1c-0.1,0-0.4,0.3-0.4,0.4
			c-0.1,0.7-0.1,1.5-0.1,2.2c0,19.6,0,39.3,0,58.9c0,0.8,0,1.6,0,2.5c0,0,0,0,0,0c-0.7,0-1.4,0.1-2,0.1c-3.3,0-6.5,0-9.8,0
			c-5.9,0-11.9,0-17.8,0c-0.6,0-1.2,0-1.8,0c-0.2,0-0.5,0.3-0.5,0.6c0,0.5,0,1.1,0,1.6c0,4.5,0,9,0,13.5c0,4.8,0,9.5,0,14.3
			c0,0.6,0,1.2,0.1,1.8c-0.1,0.7-0.1,1.4-0.1,2c0,9.2,0,18.4,0,27.6c0,0.9,0,1.8,0,2.7l0,0c-0.8,0.1-1.6,0.1-2.4,0.1c-9,0-18,0-27,0
			c-0.6,0-1.2,0-1.8,0c-0.1,0-0.3,0-0.4,0.1c-0.1,0-0.4,0.3-0.4,0.4c0,0.3-0.1,0.5-0.1,0.8c0,1.7,0,3.4,0,5.1c0,7.8,0,15.5,0,23.3
			c0,0.7,0.1,1.5-0.1,2.2l0,0c-10,0-19.9,0-29.9,0c-0.3,0-0.5,0-0.8,0c-0.2,0-0.4,0-0.6,0c-0.1,0-0.1,0-0.2,0
			c-0.1,0-0.4,0.3-0.4,0.4c-0.1,0.8-0.1,1.6-0.1,2.5c0,62.3,0,124.6,0,186.9c0,0.6,0,1.2,0,1.8c0,0.2,0,0.4,0.1,0.6
			c0,0.1,0.3,0.4,0.4,0.4c0.5,0,1.1,0.1,1.6,0.1c6.6,0,13.2,0,19.9,0c3.3,0,6.7,0,10,0l0.1,0c0,0.7,0,1.5,0,2.2c0,8.9,0,17.9,0,26.8
			c0,0.6,0,1.2,0,1.8c0,0.2,0,0.4,0.1,0.6c0,0.1,0.3,0.4,0.4,0.4c0.5,0.1,1.1,0.1,1.6,0.1c9.1,0,18.3,0,27.4,0c0.5,0,1.1,0,1.6,0
			c0.3,0,0.7,0.1,1,0.1l0,0c0,0.7,0,1.5,0,2.2c0,9,0,18,0,27c0,0.7,0,1.4,0,2c0,0.1,0,0.3,0.1,0.4c0.1,0.1,0.2,0.2,0.3,0.3
			c0.7,0.2,1.4,0.1,2,0.1c9.2,0,18.4,0,27.6,0c0.5,0,1,0,1.4,0c0.2,0,0.4-0.1,0.6-0.1c0.7,0.2,1.5,0.1,2.2,0.1c19.7,0,39.5,0,59.2,0
			c0.7,0,1.4,0,2,0c0.3,0,0.5-0.1,0.8-0.1c0.8,0.1,1.6,0.1,2.5,0.1c41,0,82.1,0,123.1,0c0.6,0,1.2,0,1.8,0c0.3,0,0.5-0.1,0.8-0.1
			c0.3,0,0.5,0.1,0.8,0.1c0.5,0,1.1,0,1.6,0c19.9,0,39.8,0,59.6,0c0.5,0,1.1,0,1.6,0c0.2,0,0.4-0.1,0.6-0.1c0.2,0,0.4,0.1,0.6,0.1
			c0.5,0,1.1,0,1.6,0c9.1,0,18.3,0,27.4,0c0.4,0,0.8,0,1.2,0c0.2,0,0.4,0,0.6,0c0.4,0,0.7-0.3,0.7-0.6c0-0.3,0-0.5,0-0.8
			c0-2.5,0-4.9,0-7.4c0-2.2,0-4.5,0-6.7c0-4.8,0-9.7,0-14.5C418.5,451.5,418.5,450.8,418.6,450.1z"/>
		<path class="st1" d="M193.6,97.1c0,0.3,0.1,0.5,0.1,0.8c0,0.5,0,1.1,0,1.6c0,19.7,0,39.5,0,59.2c0,0.7,0,1.5,0,2.2
			c-2.6,0-5.2,0-7.8,0c-7.2,0-14.4,0-21.7,0c-0.6,0-1.2,0-1.8,0c-0.5,0-1,0.5-1,1.1c0,0.6,0,1.2,0,1.8c0,9.2,0,18.4,0,27.6
			c0,0.6,0,1.2,0,1.8c0,9.9,0,19.9,0,29.8c0,0.7,0,1.4,0,2c-0.7,0-1.4,0.1-2,0.1c-4.2,0-8.5,0-12.7,0c-5,0-10,0-14.9,0
			c-0.5,0-1.1,0-1.6,0.1c-0.2,0-0.5,0.3-0.6,0.5c-0.1,0.5-0.1,1.1-0.1,1.6c0,20.7,0,41.3,0,62c0,0.3,0,0.7,0,1c0,3.7,0,7.4,0,11
			c0,5.9,0,11.7,0,17.6c0,0.4,0,0.8,0,1.2c0,0.1,0,0.3,0,0.4c0,0.3,0.3,0.7,0.7,0.7c0.6,0,1.2,0.1,1.8,0.1c5.5,0,11,0,16.6,0
			c4.3,0,8.6,0,12.9,0c0.7,0,1.4,0,2,0c9.2,0,18.4,0,27.6,0c0.5,0,1,0,1.4,0c0.2,0,0.4,0,0.6-0.1c0.2,0,0.5-0.3,0.6-0.5
			c0.1-0.5,0.1-1.1,0.1-1.6c0-6.4,0-12.8,0-19.2c0-2.9,0-5.7,0-8.6c0-0.6,0-1.2,0.1-1.8c0.8-0.1,1.6-0.1,2.5-0.1
			c8.8,0,17.6,0,26.4,0c0.4,0,0.8,0,1.2,0c0.2,0,0.4,0,0.6,0c0.8,0,1.1-0.2,1.2-1.1c0-0.6,0-1.2,0-1.8c0-19.6,0-39.3,0-58.9
			c0-0.8,0-1.6,0-2.5c0-0.8,0-1.6,0-2.5c0-8.9,0-17.7,0-26.6c0-0.7,0-1.4,0-2c0-0.1,0.1-0.3,0.1-0.4c0-0.1,0.3-0.4,0.4-0.4
			c0.2,0,0.4-0.1,0.6-0.1c0.5,0,1.1,0,1.6,0c19.8,0,39.6,0,59.3,0c0.7,0,1.5,0,2.2,0c0,0.7,0,1.5,0,2.2c0,19.8,0,39.7,0,59.5
			c0,0.8,0,1.6,0,2.5c0,0.5,0,1.1,0,1.6c0,9.5,0,19,0,28.4c0,0.3,0,0.5,0,0.8c0,0.1,0,0.3,0,0.4c0,0.3,0.3,0.7,0.6,0.7
			c0.7,0,1.4,0.1,2,0.1c9.1,0,18.3,0,27.4,0c0.6,0,1.2,0,1.8,0c0.9,0,1.8,0,2.7,0c8.9,0,17.9,0,26.8,0c1,0,1.9,0,2.9,0
			c0,10,0,19.9,0,29.9c0,0.7,0,1.4,0,2c-0.8,0-1.6,0.1-2.5,0.1c-8.9,0-17.7,0-26.6,0c-0.6,0-1.2,0-1.8,0c-0.2,0-0.4,0-0.6,0.1
			c-0.3,0-0.8,0.5-0.8,0.8c0,0.2,0,0.4-0.1,0.6c0,0.6,0,1.2,0,1.8c0,19.4,0,38.8,0,58.3c0,0.9,0,1.8,0,2.7c-0.7,0-1.5,0-2.2,0
			c-9.1,0-18.1,0-27.2,0c-0.8,0-1.6,0-2.5,0c-0.9,0-1.8,0-2.7,0c-20.5,0-41,0-61.5,0c-0.2-0.6-0.1-1.2-0.1-1.8c0-3.8,0-7.6,0-11.4
			c0-5.4,0-10.8,0-16.1c0-0.5,0-1.1,0-1.6c0-0.1,0-0.3-0.1-0.4c0-0.1-0.3-0.4-0.4-0.4c-0.6-0.1-1.2-0.1-1.8-0.1
			c-9.3,0-18.5,0-27.8,0c-0.6,0-1.2,0-1.8,0c-0.5,0-1.1,0-1.6,0c-3.8,0-7.6,0-11.4,0c-5.7,0-11.3,0-17,0c-0.4,0-0.8,0-1.2,0
			c-0.1,0-0.3,0-0.4,0c-0.3,0-0.7,0.3-0.7,0.7c0,0.7,0,1.4-0.1,2c0,8.9,0,17.8,0,26.8c0,0.8,0,1.6,0,2.5c-0.8,0-1.5,0-2.3,0
			c-8.9,0-17.7,0-26.6,0c-0.6,0-1.2,0-1.8,0c-0.2,0-0.4,0-0.6,0.1c-0.2,0-0.5,0.3-0.5,0.5c-0.1,0.7-0.1,1.4-0.1,2c0,9,0,18,0,27
			c0,0.5,0,1,0,1.4c0,0.2,0,0.4,0.1,0.6c0,0.2,0.3,0.5,0.5,0.5c0.7,0.1,1.4,0.1,2,0.1c8.9,0,17.9,0,26.8,0c0.8,0,1.6,0,2.5,0
			c0,0.8,0,1.5,0,2.3c0,8.9,0,17.7,0,26.6c0,0.6,0,1.2,0,1.8c0,0.2,0,0.4,0.1,0.6c0,0.2,0.3,0.5,0.5,0.6c0.7,0.1,1.4,0.1,2,0.1
			c9,0,18,0,27,0c0.6,0,1.2,0,1.8,0c0.3,0,0.5,0.1,0.8,0.1c0,0.8,0,1.6,0,2.5c0,9,0,18,0,27c0,0.8,0,1.6,0,2.5
			c-0.3,0-0.5,0.1-0.8,0.1c-0.7,0-1.4,0-2,0c-19.7,0-39.5,0-59.2,0c-0.7,0-1.5,0.1-2.2-0.1c0-6.1,0-12.3,0-18.4c0-3.7,0-7.4,0-11.1
			c0-0.5,0-1.1,0-1.6c0-0.1-0.1-0.3-0.1-0.4c0-0.1-0.3-0.4-0.4-0.4c-0.4-0.1-0.8-0.1-1.2-0.1c-9.6,0-19.2,0-28.9,0
			c-0.5,0-1,0-1.4,0.1c0,0,0,0,0,0c0-0.5,0.1-1,0.1-1.4c0-9.6,0-19.2,0-28.8c0-0.3,0-0.5,0-0.8c0-0.1,0-0.3-0.1-0.4
			c0-0.2-0.3-0.5-0.5-0.5c-0.7-0.1-1.4-0.1-2-0.1c-9.2,0-18.4,0-27.6,0c-0.7,0-1.4,0-2,0c0,0-0.1,0-0.1,0c0-0.6,0-1.2,0-1.8
			c0-63,0-126.1,0-189.1c0-0.6,0-1.2,0-1.8c0,0,0,0,0,0c0.7,0,1.5,0,2.2,0c9,0,18,0,27,0c0.6,0,1.2,0,1.8,0c0.2,0,0.4,0,0.6-0.1
			c0.2,0,0.5-0.3,0.6-0.5c0.1-0.5,0.1-0.9,0.1-1.4c0-9.4,0-18.8,0-28.2c0-0.6,0-1.2-0.1-1.8c0,0,0,0,0,0c0.6,0,1.2,0.1,1.8,0.1
			c9.4,0,18.8,0,28.2,0c0.4,0,0.8,0,1.2,0c0.1,0,0.3,0,0.4-0.1c0.3-0.1,0.5-0.3,0.6-0.5c0.1-0.5,0.2-0.9,0.4-1.4
			c0.1-0.4,0.2-0.8,0.2-1.2c0-0.5,0-1.1,0-1.6c0-7.6,0-15.1,0-22.7c0-0.5,0-1,0-1.4c0-0.5-0.1-0.9-0.2-1.4c-0.2-0.6-0.5-1.3-0.6-2
			c0-10.7,0-21.3,0-32c0,0,0,0,0,0c9.8,0,19.6,0,29.4,0c0.5,0,1.1,0,1.6,0c0.1,0,0.3-0.1,0.4-0.1c0.1,0,0.4-0.3,0.4-0.4
			c0-0.2,0.1-0.4,0.1-0.6c0-0.7,0-1.4,0-2c0-9.6,0-19.2,0-28.8c0.9,0,1.8,0,2.7,0C173.9,97.1,183.8,97.1,193.6,97.1z"/>
		<path class="st2" d="M65.1,225.3c0,0.6,0,1.2,0,1.8c0,63,0,126.1,0,189.1c0,0.6,0,1.2,0,1.8c-3.3,0-6.7,0-10,0
			c-6.6,0-13.2,0-19.9,0c-0.5,0-1.1,0-1.6-0.1c-0.1,0-0.4-0.3-0.4-0.4c0-0.2-0.1-0.4-0.1-0.6c0-0.6,0-1.2,0-1.8
			c0-62.3,0-124.6,0-186.9c0-0.8-0.1-1.6,0.1-2.5c0-0.1,0.3-0.4,0.4-0.4c0.1,0,0.1,0,0.2,0c0.2,0,0.4,0,0.6,0c0.3,0,0.5,0,0.8,0
			C45.2,225.3,55.2,225.3,65.1,225.3z"/>
		<path class="st2" d="M450.6,225.3c0.8,0,1.6,0,2.5,0c9,0,18,0,27,0c0.7,0,1.4,0,2,0c0.2,0,0.5,0.3,0.5,0.6c0,0.2,0,0.4,0,0.6
			c0,0.6,0,1.2,0,1.8c0,62.2,0,124.5,0,186.7c0,0.8,0,1.6,0,2.5c0,0.2-0.3,0.5-0.5,0.5c-0.2,0-0.4,0-0.6,0c-0.6,0-1.2,0-1.8,0
			c-8.9,0-17.7,0-26.6,0c-0.8,0-1.6,0-2.5,0.1c0,0,0,0,0,0c0-0.7,0-1.4,0-2c0-62.9,0-125.7,0-188.6
			C450.6,226.8,450.5,226,450.6,225.3L450.6,225.3z"/>
		<path class="st3" d="M290.1,193.4c-0.7,0-1.5,0-2.2,0c-19.8,0-39.6,0-59.3,0c-0.5,0-1.1,0-1.6,0c-0.2,0-0.4,0.1-0.6,0.1
			c-0.1,0-0.4,0.3-0.4,0.4c0,0.1-0.1,0.3-0.1,0.4c0,0.7,0,1.4,0,2c0,8.9,0,17.7,0,26.6c0,0.8,0,1.6,0,2.5c-0.8,0-1.6,0-2.5,0
			c-9,0-18,0-27,0c-0.8,0-1.6,0-2.5-0.1c0-0.8-0.1-1.6-0.1-2.5c0-8.8,0-17.6,0-26.4c0-0.6,0-1.2,0-1.8c0-0.2,0-0.4-0.1-0.6
			c0-0.2-0.3-0.5-0.6-0.5c-0.6-0.1-1.2-0.1-1.8-0.1c-9.3,0-18.7,0-28,0c-0.6,0-1.2,0-1.8,0c0-0.6,0-1.2,0-1.8c0-9.2,0-18.4,0-27.6
			c0-0.6,0-1.2,0-1.8c0-0.6,0.5-1.1,1-1.1c0.6,0,1.2,0,1.8,0c7.2,0,14.4,0,21.7,0c2.6,0,5.2,0,7.8,0c0.3,0,0.5,0.1,0.8,0.1
			c0.7,0,1.5,0,2.2,0c30.2,0,60.4,0,90.6,0c0.7,0,1.5,0,2.2,0c0.3,0,0.5,0.1,0.8,0.2c0,0.5,0,1.1,0,1.6c0,10.1,0,20.2,0,30.4
			C290.3,193.3,290.2,193.4,290.1,193.4z"/>
		<path class="st4" d="M193.8,482.1c0-0.8,0-1.6,0-2.5c0-9,0-18,0-27c0-0.8,0-1.6,0-2.5c0,0,0.1-0.2,0.1-0.2
			c0.8,0.1,1.6,0.1,2.5,0.1c8.9,0,17.7,0,26.6,0c0.6,0,1.2,0,1.8,0c0.3,0,0.7-0.1,1-0.1c0.7,0.1,1.5,0.1,2.2,0.1
			c5.5,0,11.1,0,16.6,0c3.8,0,7.6,0,11.5,0c0.7,0,1.4,0,2-0.1c0.7,0.2,1.5,0.1,2.2,0.1c9.2,0,18.3,0,27.5,0c0.5,0,1,0,1.4,0
			c0.3,0,0.5-0.1,0.8-0.1c0.7,0.1,1.4,0.1,2,0.1c4.6,0,9.3,0,13.9,0c5.3,0,10.6,0,16,0c0.2,0,0.3,0,0.5,0c0,0.3,0,0.5,0,0.8
			c0,0.4,0,0.8-0.2,1.2c-0.2,0.4-0.2,0.8-0.2,1.2c0,0.5,0,1.1,0,1.6c0,8.2,0,16.5,0,24.7c0,0.8,0,1.6,0,2.4c-0.3,0-0.5,0.1-0.8,0.1
			c-0.6,0-1.2,0-1.8,0c-41,0-82.1,0-123.1,0C195.4,482.2,194.6,482.3,193.8,482.1z"/>
		<path class="st5" d="M322,161c0-0.3,0.1-0.5,0.1-0.8c0-0.6,0-1.2,0-1.8c0-19.5,0-39.1,0-58.6c0-0.7,0-1.4,0-2
			c0-0.2,0.1-0.4,0.1-0.6c1.9,0,3.8,0,5.7,0c8.8,0,17.6,0,26.4,0c0,7.2,0,14.3,0,21.5c0,3,0,6,0,9c0,0.3,0,0.7,0.1,1
			c0,0.1,0.3,0.4,0.4,0.4c0.1,0,0.3,0.1,0.4,0.1c0.5,0,1.1,0,1.6,0c9.1,0,18.3,0,27.4,0c0.7,0,1.4,0,2,0c0,0,0,0,0,0
			c0,0.7,0,1.5,0,2.2c0,9.4,0,18.8,0,28.1c0,0.7,0,1.4,0,2c0,0,0,0,0,0c-10.6,0-21.3,0-31.9,0c-9.6,0-19.2,0-28.7,0
			c-0.5,0-1.1,0-1.6,0c-0.5,0-0.9-0.1-1.4-0.3C322.4,161,322.2,161,322,161C322,161,322,161,322,161z"/>
		<path class="st2" d="M161.4,97.1c0,9.6,0,19.2,0,28.8c0,0.7,0,1.4,0,2c0,0.2-0.1,0.4-0.1,0.6c0,0.1-0.3,0.4-0.4,0.4
			c-0.1,0-0.3,0.1-0.4,0.1c-0.5,0-1.1,0-1.6,0c-9.8,0-19.6,0-29.4,0c0-0.8,0-1.6,0-2.5c0-19.6,0-39.3,0-58.9c0-0.7-0.1-1.5,0.1-2.2
			c0-0.1,0.3-0.4,0.4-0.4c0.1,0,0.3-0.1,0.4-0.1c0.6,0,1.2,0,1.8,0c8.9,0,17.9,0,26.8,0c0.7,0,1.4,0.1,2-0.1c0.1,0,0.4-0.3,0.4-0.4
			c0-0.2,0.1-0.4,0.1-0.6c0-0.6,0-1.2,0-1.8c0-8.9,0-17.7,0-26.6c0-0.7,0-1.4,0.1-2c0-0.2,0.3-0.5,0.6-0.5c0.3,0,0.5,0,0.8,0
			c9.8,0,19.5,0,29.3,0c0.3,0,0.7,0,1,0.1c0.1,0,0.4,0.3,0.4,0.4c0,0.1,0.1,0.3,0.1,0.4c0,0.5,0,1.1,0,1.6c0,9.2,0,18.4,0,27.6
			c0,0.7,0.1,1.5-0.1,2.2c-3.8,0-7.6,0-11.5,0c-6.1,0-12.3,0-18.4,0c-0.4,0-0.8,0-1.2,0c-0.1,0-0.3,0-0.4,0c-0.3,0-0.7,0.3-0.7,0.6
			c0,0.7-0.1,1.4-0.1,2c0,7.8,0,15.5,0,23.3C161.4,93.1,161.4,95.1,161.4,97.1z"/>
		<path class="st2" d="M386.3,129c-0.7,0-1.4,0-2,0c-9.1,0-18.3,0-27.4,0c-0.5,0-1.1,0-1.6,0c-0.1,0-0.3,0-0.4-0.1
			c-0.1,0-0.4-0.3-0.4-0.4c-0.1-0.3-0.1-0.7-0.1-1c0-3,0-6,0-9c0-7.2,0-14.3,0-21.5c0-10.3,0-20.6,0-31c0-0.3,0-0.7,0-1
			c0-0.1,0-0.2,0-0.3c0.8,0.1,1.6,0.1,2.5,0.1c9,0,18,0,27,0c0.7,0,1.4,0,2,0.1c0.1,0,0.4,0.3,0.4,0.4c0,0.2,0.1,0.4,0.1,0.6
			c0,0.6,0,1.2,0,1.8c0,9.6,0,19.2,0,28.9c0,9.9,0,19.8,0,29.7C386.3,127.2,386.3,128.1,386.3,129z"/>
		<path class="st1" d="M321.9,482.1c0-0.8,0-1.6,0-2.4c0-8.2,0-16.5,0-24.7c0-0.5,0-1.1,0-1.6c0-0.4,0-0.8,0.2-1.2
			c0.2-0.4,0.2-0.8,0.2-1.2c9.1,0,18.2,0,27.3,0c1,0,1.9,0,2.9,0c0.3,0,0.5,0,0.8-0.1c0.2,0,0.4-0.2,0.5-0.4c0-0.1,0.1-0.3,0.1-0.4
			c0.1,0,0.3,0,0.4,0c0.8,0,1.6,0,2.4,0c9.8,0,19.7,0,29.5,0c0,7.7,0,15.5,0,23.2c0,2.9,0,5.8,0,8.8c-0.2,0-0.4,0.1-0.6,0.1
			c-0.5,0-1.1,0-1.6,0c-19.9,0-39.8,0-59.6,0c-0.5,0-1.1,0-1.6,0C322.5,482.2,322.2,482.2,321.9,482.1z"/>
		<path class="st3" d="M129.4,161c0.1,0.7,0.4,1.3,0.6,2c0.1,0.5,0.2,0.9,0.2,1.4c0,0.5,0,1,0,1.4c0,7.6,0,15.1,0,22.7
			c0,0.5,0,1.1,0,1.6c0,0.4-0.1,0.8-0.2,1.2c-0.2,0.4-0.2,0.9-0.4,1.4c-0.1,0.3-0.3,0.4-0.6,0.5c-0.1,0-0.3,0.1-0.4,0.1
			c-0.4,0-0.8,0-1.2,0c-9.4,0-18.8,0-28.2,0c-0.6,0-1.2,0-1.8-0.1c0-0.9,0-1.8,0-2.7c0-9.2,0-18.4,0-27.6c0-0.7-0.1-1.4,0.1-2
			C108.1,161,118.8,161,129.4,161z"/>
		<path class="st2" d="M354.3,64.8c0,0.1,0,0.2,0,0.3c-0.7,0-1.4,0-2,0c-9.4,0-18.8,0-28.2,0c-0.6,0-1.2,0-1.8,0
			c0-0.2-0.1-0.4-0.1-0.6c0-0.5,0-1.1,0-1.6c0-9.3,0-18.6,0-27.8c0-0.6,0-1.2,0.1-1.8c0-0.1,0.3-0.4,0.4-0.4c0.2,0,0.4-0.1,0.6-0.1
			c1,0,2,0,3.1,0c8.5,0,16.9,0,25.4,0c0.6,0,1.2,0,1.8,0c0.6,0,0.8,0.3,0.8,0.7c0,0.6,0,1.2,0,1.8c0,8,0,16,0,23.9
			C354.3,61.1,354.3,63,354.3,64.8z"/>
		<path class="st2" d="M386.3,161.4c0-0.7,0-1.4,0-2c0-9.4,0-18.8,0-28.1c0-0.7,0-1.5,0-2.2c0.3,0,0.7,0.1,1,0.1c0.5,0,1.1,0,1.6,0
			c9,0,18,0,27,0c0.7,0,1.4,0,2,0.1c0.2,0,0.5,0.3,0.5,0.6c0,0.3,0,0.5,0,0.8c0,9.9,0,19.8,0,29.6c0,0.4,0,0.8-0.1,1.2
			c-0.3,0-0.7,0-1,0C407,161.4,396.6,161.4,386.3,161.4z"/>
		<path class="st6" d="M322.2,65.1c0.6,0,1.2,0,1.8,0c9.4,0,18.8,0,28.2,0c0.7,0,1.4,0,2,0c0,0.3,0,0.7,0,1c0,10.3,0,20.6,0,31
			c-8.8,0-17.6,0-26.4,0c-1.9,0-3.8,0-5.7,0c0-0.2-0.1-0.4-0.1-0.6c0-0.5,0-1.1,0-1.6c0-9.2,0-18.3,0-27.5c0-0.5,0-1.1,0-1.6
			C322.1,65.5,322.2,65.3,322.2,65.1z"/>
		<path class="st7" d="M97.4,193.2c0,0.6,0.1,1.2,0.1,1.8c0,9.4,0,18.8,0,28.2c0,0.5,0,1-0.1,1.4c0,0.2-0.3,0.5-0.6,0.5
			c-0.2,0-0.4,0.1-0.6,0.1c-0.6,0-1.2,0-1.8,0c-9,0-18,0-27,0c-0.7,0-1.5,0-2.2,0c0.1-0.7,0.1-1.5,0.1-2.2c0-7.8,0-15.5,0-23.3
			c0-1.7,0-3.4,0-5.1c0-0.3,0-0.5,0.1-0.8c0-0.1,0.3-0.4,0.4-0.4c0.1,0,0.3-0.1,0.4-0.1c0.6,0,1.2,0,1.8,0c9,0,18,0,27,0
			C95.8,193.3,96.6,193.4,97.4,193.2z"/>
		<path class="st7" d="M386.3,161.4c10.4,0,20.7,0,31.1,0c0.3,0,0.7,0,1,0c0,0.2,0.1,0.4,0.1,0.6c0,0.7,0,1.4,0,2c0,9,0,17.9,0,26.9
			c0,0.8-0.1,1.6,0.1,2.4c0,0,0,0,0,0c-0.8,0-1.6,0-2.5,0c-10,0-19.9,0-29.9,0c0-0.9,0-1.8,0-2.7
			C386.3,180.9,386.3,171.1,386.3,161.4L386.3,161.4z"/>
		<path class="st6" d="M161.4,97.1c0-2,0-4,0-5.9c0-7.8,0-15.5,0-23.3c0-0.7,0-1.4,0.1-2c0-0.3,0.4-0.6,0.7-0.6c0.1,0,0.3,0,0.4,0
			c0.4,0,0.8,0,1.2,0c6.1,0,12.3,0,18.4,0c3.8,0,7.6,0,11.5,0c0.1,0.3,0.1,0.7,0.1,1c0,10,0,20,0,29.9c0,0.3,0,0.7-0.1,1
			c-9.9,0-19.7,0-29.6,0C163.2,97.1,162.3,97.1,161.4,97.1z"/>
		<path class="st2" d="M65.2,418.2c0.7,0,1.4,0,2,0c9.2,0,18.4,0,27.6,0c0.7,0,1.4-0.1,2,0.1c0.2,0,0.5,0.3,0.5,0.5
			c0,0.1,0.1,0.3,0.1,0.4c0,0.3,0,0.5,0,0.8c0,9.6,0,19.2,0,28.8c0,0.5,0,1-0.1,1.4c-0.3,0-0.7-0.1-1-0.1c-0.5,0-1.1,0-1.6,0
			c-9.1,0-18.3,0-27.4,0c-0.5,0-1.1,0.1-1.6-0.1c-0.1,0-0.4-0.3-0.4-0.4c0-0.2-0.1-0.4-0.1-0.6c0-0.6,0-1.2,0-1.8
			c0-8.9,0-17.9,0-26.8C65.3,419.7,65.2,418.9,65.2,418.2z"/>
		<path class="st2" d="M386.2,482.1c0-2.9,0-5.8,0-8.8c0-7.7,0-15.5,0-23.2c0,0,0,0,0,0c10.1,0,20.2,0,30.3,0c0.7,0,1.4,0,2,0l0,0
			c-0.1,0.7-0.1,1.4-0.1,2c0,4.8,0,9.7,0,14.5c0,2.2,0,4.5,0,6.7c0,2.5,0,4.9,0,7.4c0,0.3,0,0.5,0,0.8c0,0.3-0.3,0.6-0.7,0.6
			c-0.2,0-0.4,0-0.6,0c-0.4,0-0.8,0-1.2,0c-9.1,0-18.3,0-27.4,0c-0.5,0-1.1,0-1.6,0C386.6,482.2,386.4,482.2,386.2,482.1z"/>
		<path class="st2" d="M129.4,161c-10.7,0-21.3,0-32,0c-0.1-0.6-0.1-1.2-0.1-1.8c0-4.8,0-9.5,0-14.3c0-4.5,0-9,0-13.5
			c0-0.5,0-1.1,0-1.6c0-0.2,0.3-0.6,0.5-0.6c0.6,0,1.2,0,1.8,0c5.9,0,11.9,0,17.8,0c3.3,0,6.5,0,9.8,0c0.7,0,1.4,0,2-0.1
			C129.4,139.7,129.4,150.3,129.4,161z"/>
		<path class="st2" d="M450.5,418.2c0,9.7,0,19.5,0,29.2c0,0.7,0.1,1.5-0.1,2.2c0,0.2-0.2,0.4-0.4,0.4c-0.1,0-0.3,0-0.4,0.1
			c-0.2,0-0.4,0-0.6,0c-10.2,0-20.3,0-30.5,0c0,0,0,0,0,0c0-0.8,0-1.5,0-2.3c0-9.9,0-19.8,0-29.7c10.3,0,20.6,0,30.9,0
			C449.9,418.2,450.2,418.2,450.5,418.2L450.5,418.2z"/>
		<path class="st2" d="M97.4,450.2c0.5,0,1-0.1,1.4-0.1c9.6,0,19.2,0,28.9,0c0.4,0,0.8,0,1.2,0.1c0.1,0,0.4,0.3,0.4,0.4
			c0,0.1,0.1,0.3,0.1,0.4c0,0.5,0,1.1,0,1.6c0,3.7,0,7.4,0,11.1c0,6.1,0,12.3,0,18.4c-0.2,0-0.4,0.1-0.6,0.1c-0.5,0-1,0-1.4,0
			c-9.2,0-18.4,0-27.6,0c-0.7,0-1.4,0.1-2-0.1c-0.1,0-0.2-0.2-0.3-0.3c-0.1-0.1-0.1-0.3-0.1-0.4c0-0.7,0-1.4,0-2c0-9,0-18,0-27
			C97.4,451.7,97.4,451,97.4,450.2z"/>
		<path class="st2" d="M418.6,193.3c10.1,0,20.2,0,30.3,0c0.3,0,0.5,0,0.8,0c0.1,0,0.3,0,0.4,0.1c0.1,0,0.4,0.3,0.4,0.4
			c0,0.2,0.1,0.4,0.1,0.6c0,0.6,0,1.2,0,1.8c0,8.9,0,17.7,0,26.6c0,0.8,0,1.6,0,2.5c0,0,0,0,0,0c-0.7,0-1.4,0-2,0
			c-8.9,0-17.9,0-26.8,0c-0.6,0-1.2,0-1.8,0c-0.2,0-0.4,0-0.6-0.1c-0.2,0-0.5-0.3-0.5-0.5c-0.1-0.5-0.1-1.1-0.1-1.6
			c0-5.7,0-11.3,0-17C418.6,201.8,418.6,197.6,418.6,193.3L418.6,193.3z"/>
		<path class="st8" d="M290.4,193.3c0-10.1,0-20.2,0-30.4c0-0.5,0-1.1,0-1.6c0.2,0,0.4-0.1,0.6-0.1c0.7,0,1.4,0,2,0
			c8.8,0,17.7,0,26.5,0c0.6,0,1.2,0,1.8,0c0.2,0,0.4-0.1,0.6-0.1c0,0,0,0,0,0c0,0.1,0,0.3,0,0.4c0,5.9,0,11.8,0,17.8
			c0,4.7,0,9.4,0,14.1c-0.7,0.1-1.4,0.1-2,0.1c-9.2,0-18.5,0-27.7,0C291.6,193.3,291,193.3,290.4,193.3z"/>
		<path class="st4" d="M225.8,385.8c20.5,0,41,0,61.5,0c0.9,0,1.8,0,2.7,0c0,0.8,0,1.6,0,2.5c0,8.5,0,16.9,0,25.4c0,1.4,0,2.9,0,4.3
			c-0.3,0-0.5,0.1-0.8,0.1c-0.6,0-1.2,0-1.8,0c-9,0-18.1,0-27.1,0c-0.7,0-1.5-0.1-2.2,0.1c-0.7-0.1-1.5-0.1-2.2-0.1
			c-6.2,0-12.4,0-18.6,0c-3.1,0-6.3,0-9.4,0c-0.7,0-1.4,0-2-0.1c0-1,0-2,0-3.1c0-8.8,0-17.5,0-26.3c0-0.6,0-1.2,0-1.8
			c0-0.3-0.1-0.7-0.1-1l0.1,0L225.8,385.8z"/>
		<path class="st9" d="M321.9,385.8c0-0.9,0-1.8,0-2.7c0-19.4,0-38.8,0-58.3c0-0.6,0-1.2,0-1.8c0-0.2,0-0.4,0.1-0.6
			c0-0.3,0.5-0.8,0.8-0.8c0.2,0,0.4-0.1,0.6-0.1c0.6,0,1.2,0,1.8,0c8.9,0,17.7,0,26.6,0c0.8,0,1.6,0,2.5-0.1c0,0.1,0.1,0.1,0.1,0.2
			c-0.2,0.7-0.1,1.4-0.1,2c0,9.4,0,18.9,0,28.3c0,0.6,0,1.2,0.1,1.8c0,0.7-0.1,1.5-0.1,2.2c0,9.2,0,18.4,0,27.6c0,0.7,0,1.4,0,2
			c-0.8,0-1.6,0-2.4,0c-9,0-18.1,0-27.1,0c-0.5,0-1.1,0-1.6,0c-0.3,0-0.7,0.1-1,0.1C322.1,385.9,322,385.9,321.9,385.8z"/>
		<path class="st10" d="M193.8,225.2c0.8,0,1.6,0.1,2.5,0.1c9,0,18,0,27,0c0.8,0,1.6,0,2.5,0c0,0.8,0,1.6,0,2.5
			c0,19.6,0,39.3,0,58.9c0,0.6,0,1.2,0,1.8c0,0.8-0.3,1-1.2,1.1c-0.2,0-0.4,0-0.6,0c-0.4,0-0.8,0-1.2,0c-8.8,0-17.6,0-26.4,0
			c-0.8,0-1.6-0.1-2.5,0.1l-0.1-0.1c0-0.9,0-1.8,0-2.7c0-19.6,0-39.2,0-58.8c0-0.5,0-1.1,0-1.6c0-0.3-0.1-0.7-0.1-1
			C193.7,225.3,193.7,225.3,193.8,225.2z"/>
		<path class="st11" d="M129.5,289.5c0-20.7,0-41.3,0-62c0-0.5,0-1.1,0.1-1.6c0-0.2,0.3-0.5,0.6-0.5c0.5,0,1.1-0.1,1.6-0.1
			c5,0,10,0,14.9,0c4.2,0,8.5,0,12.7,0c0.7,0,1.4,0,2-0.1c0,0.1,0,0.2,0.1,0.3c0,0.9,0,1.8,0,2.7c0,19.9,0,39.8,0,59.7
			c0,0.5,0,1.1,0,1.6c0,0.1,0,0.2,0,0.2c-0.4-0.1-0.8-0.1-1.2-0.1c-1.6,0-3.1,0-4.7,0c-7.8,0-15.7,0-23.5,0
			C131.1,289.6,130.3,289.7,129.5,289.5z"/>
		<path class="st12" d="M290.4,193.3c0.6,0,1.2,0.1,1.8,0.1c9.2,0,18.5,0,27.7,0c0.7,0,1.4,0,2-0.1c0,0.1,0,0.2,0,0.3
			c0,0.2,0,0.4,0,0.6c0,20.4,0,40.7,0,61.1c0,0.7,0,1.5,0,2.2c0,0.1-0.1,0.2-0.1,0.3c-0.7,0-1.5,0-2.2,0c-9.1,0-18.1,0-27.2,0
			c-0.8,0-1.6,0-2.5-0.1c0-0.8,0-1.6,0-2.5c0-19.8,0-39.7,0-59.5c0-0.7,0-1.5,0-2.2C290.2,193.4,290.3,193.3,290.4,193.3z"/>
		<path class="st10" d="M161.4,193.4c0.6,0,1.2,0,1.8,0c9.3,0,18.7,0,28,0c0.6,0,1.2,0,1.8,0.1c0.2,0,0.5,0.3,0.6,0.5
			c0,0.2,0.1,0.4,0.1,0.6c0,0.6,0,1.2,0,1.8c0,8.8,0,17.6,0,26.4c0,0.8,0,1.6,0.1,2.5c-0.1,0.1-0.1,0.1-0.2,0.2
			c-0.7,0-1.4-0.1-2-0.1c-9.3,0-18.6,0-27.9,0c-0.5,0-1,0-1.4,0c-0.3,0-0.5,0.1-0.8,0.2c0-0.1,0-0.2-0.1-0.3c0-0.7,0-1.4,0-2
			C161.4,213.3,161.4,203.3,161.4,193.4z"/>
		<path class="st10" d="M161.4,385.8c0-0.8,0-1.6,0-2.5c0-8.9,0-17.8,0-26.8c0-0.7,0-1.4,0.1-2c0-0.3,0.3-0.6,0.7-0.7
			c0.1,0,0.3,0,0.4,0c0.4,0,0.8,0,1.2,0c5.7,0,11.3,0,17,0c3.8,0,7.6,0,11.4,0c0.5,0,1.1,0,1.6,0c0,0.6,0,1.2,0,1.8
			c0,10,0,20,0,30.1l0,0c-0.3,0-0.7,0-1,0c-9.7,0-19.5,0-29.2,0c-0.4,0-0.8,0-1.2,0c-0.3,0-0.5,0.1-0.8,0.1
			C161.5,385.9,161.4,385.9,161.4,385.8z"/>
		<path class="st10" d="M193.8,289.7c-0.1,0.6-0.1,1.2-0.1,1.8c0,2.9,0,5.7,0,8.6c0,6.4,0,12.8,0,19.2c0,0.5,0,1.1-0.1,1.6
			c0,0.2-0.3,0.5-0.6,0.5c-0.2,0-0.4,0.1-0.6,0.1c-0.5,0-1,0-1.4,0c-9.2,0-18.4,0-27.6,0c-0.7,0-1.4,0-2,0c0-9.6,0-19.3,0-28.9
			c0-1,0-1.9,0-2.9c0-0.1,0-0.2,0-0.2c0.3,0,0.7,0.1,1,0.1c0.5,0,1.1,0,1.6,0c7.4,0,14.7,0,22.1,0c1.9,0,3.8,0,5.7,0
			c0.6,0,1.2,0,1.8-0.1L193.8,289.7z"/>
		<path class="st10" d="M354.3,289.6c-1,0-1.9,0-2.9,0c-8.9,0-17.9,0-26.8,0c-0.9,0-1.8,0-2.7,0c0-0.8,0-1.5,0-2.3
			c0-5.4,0-10.8,0-16.2c0-4.5,0-9,0-13.5c0-0.1,0.1-0.2,0.1-0.3c0.3,0.1,0.5,0.2,0.8,0.2c0.6,0,1.2,0,1.8,0c5.9,0,11.8,0,17.7,0
			c3.9,0,7.9,0,11.8,0c0,0.5,0.1,0.9,0.1,1.4c0,0.9,0,1.8,0,2.7C354.3,271,354.3,280.3,354.3,289.6
			C354.3,289.6,354.3,289.6,354.3,289.6z"/>
		<path class="st9" d="M161.4,418.2c-0.8,0-1.6,0-2.5,0c-8.9,0-17.9,0-26.8,0c-0.7,0-1.4,0.1-2-0.1c-0.2,0-0.5-0.3-0.5-0.5
			c0-0.2-0.1-0.4-0.1-0.6c0-0.5,0-1,0-1.4c0-9,0-18,0-27c0-0.7-0.1-1.4,0.1-2c0-0.2,0.3-0.5,0.5-0.5c0.2,0,0.4-0.1,0.6-0.1
			c0.6,0,1.2,0,1.8,0c8.9,0,17.7,0,26.6,0c0.8,0,1.5,0,2.3,0c0,0.1,0.1,0.1,0.1,0.2c-0.2,0.7-0.1,1.4-0.1,2c0,9.3,0,18.7,0,28
			c0,0.4,0,0.8,0,1.2c0,0.3,0.1,0.5,0.1,0.8C161.5,418.1,161.4,418.2,161.4,418.2z"/>
		<path class="st10" d="M290,418c0-1.4,0-2.9,0-4.3c0-8.5,0-16.9,0-25.4c0-0.8,0-1.6,0-2.5c0.8,0,1.6,0,2.5,0c9.1,0,18.1,0,27.2,0
			c0.7,0,1.5,0,2.2,0c0.1,0.1,0.1,0.1,0.2,0.2c-0.2,0.7-0.1,1.5-0.1,2.2c0,8.1,0,16.2,0,24.3c0,1.4,0,2.9,0,4.3
			c0,0.5-0.1,0.9-0.1,1.4c0,0,0,0,0,0c-0.7,0-1.4,0-2,0c-3.8,0-7.6,0-11.4,0c-5.4,0-10.9,0-16.3,0c-0.7,0-1.5-0.1-2.2,0.1
			C290,418.2,290,418.1,290,418z"/>
		<path class="st13" d="M193.7,450.3c-0.3,0-0.5-0.1-0.8-0.1c-0.6,0-1.2,0-1.8,0c-9,0-18,0-27,0c-0.7,0-1.4,0.1-2-0.1
			c-0.2,0-0.5-0.3-0.5-0.6c0-0.2-0.1-0.4-0.1-0.6c0-0.6,0-1.2,0-1.8c0-8.9,0-17.7,0-26.6c0-0.8,0-1.5,0-2.3c0.1,0,0.1-0.1,0.2-0.1
			c0.3,0,0.5,0.1,0.8,0.1c0.6,0,1.2,0,1.8,0c9,0,18.1,0,27.1,0c0.8,0,1.6,0,2.4,0.1c0,0.9,0,1.8,0,2.7c0,8.9,0,17.8,0,26.7
			c0,0.8,0,1.6,0,2.4C193.8,450.1,193.7,450.3,193.7,450.3z"/>
		<path class="st14" d="M193.7,385.8c0-10,0-20,0-30.1c0-0.6,0-1.2,0-1.8c0.6,0,1.2,0,1.8,0c9.3,0,18.5,0,27.8,0
			c0.6,0,1.2-0.1,1.8,0.1c0.1,0,0.4,0.3,0.4,0.4c0,0.1,0.1,0.3,0.1,0.4c0,0.5,0,1.1,0,1.6c0,5.4,0,10.8,0,16.1c0,3.8,0,7.6,0,11.4
			c0,0.6,0,1.2,0.1,1.8c0,0-0.1,0-0.1,0s-0.1,0-0.1,0c-0.3,0-0.7,0-1,0c-9.8,0-19.6,0-29.4,0C194.7,385.9,194.2,385.8,193.7,385.8z"
			/>
		<path class="st15" d="M161.4,289.7c0,1,0,1.9,0,2.9c0,9.6,0,19.3,0,28.9c-4.3,0-8.6,0-12.9,0c-5.5,0-11,0-16.6,0
			c-0.6,0-1.2,0-1.8-0.1c-0.3,0-0.6-0.4-0.7-0.7c0-0.1,0-0.3,0-0.4c0-0.4,0-0.8,0-1.2c0-5.9,0-11.7,0-17.6c0-3.7,0-7.4,0-11
			c0-0.3,0-0.7,0-1c0.8,0.1,1.6,0.1,2.5,0.1c7.8,0,15.7,0,23.5,0c1.6,0,3.1,0,4.7,0C160.6,289.6,161,289.6,161.4,289.7z"/>
		<path class="st16" d="M321.9,257.7c0,4.5,0,9,0,13.5c0,5.4,0,10.8,0,16.2c0,0.8,0,1.5,0,2.3c-0.6,0-1.2,0-1.8,0
			c-9.1,0-18.3,0-27.4,0c-0.7,0-1.4,0-2-0.1c-0.3,0-0.6-0.4-0.6-0.7c0-0.1,0-0.3,0-0.4c0-0.3,0-0.5,0-0.8c0-9.5,0-19,0-28.4
			c0-0.5,0-1.1,0-1.6c0.8,0.1,1.6,0.1,2.5,0.1c9.1,0,18.1,0,27.2,0C320.4,257.6,321.2,257.6,321.9,257.7z"/>
		<path class="st4" d="M354.3,321.5c0-0.7,0-1.4,0-2c0-10,0-19.9,0-29.9c0,0,0,0,0,0c1.2,0,2.4,0,3.7,0c9.4,0,18.9,0,28.3,0
			c0,10.2,0,20.4,0,30.6c0,0.5,0,1,0,1.4c-0.7,0-1.4,0-2,0c-4.6,0-9.2,0-13.9,0c-4.6,0-9.2,0-13.9,0c-0.7,0-1.4,0-2,0.1
			C354.4,321.6,354.3,321.6,354.3,321.5z"/>
		<path class="st1" d="M386.2,321.6c0-0.5,0-1,0-1.4c0-10.2,0-20.4,0-30.6c0-10.4,0-20.8,0-31.2c0-0.3,0-0.5,0-0.8c0-0.7,0-1.4,0-2
			c0-9.4,0-18.8,0-28.2c0-0.7,0-1.4,0-2c0-0.7,0-1.5,0-2.2c0-7.7,0-15.3,0-23c0-2.2,0-4.5,0-6.7l0,0c10,0,19.9,0,29.9,0
			c0.8,0,1.6,0,2.5,0c0,4.2,0,8.5,0,12.7c0,5.7,0,11.3,0,17c0,0.5,0,1.1,0.1,1.6c0,0.2,0.3,0.5,0.5,0.5c0.2,0,0.4,0.1,0.6,0.1
			c0.6,0,1.2,0,1.8,0c8.9,0,17.9,0,26.8,0c0.7,0,1.4,0,2,0c0,0.8,0,1.5,0,2.3c0,62.9,0,125.7,0,188.6c0,0.7,0,1.4,0,2
			c-0.3,0-0.7,0-1,0c-10.3,0-20.6,0-30.9,0c0-0.2,0-0.4-0.1-0.6c-0.2-0.5-0.3-1-0.3-1.6c0-0.3,0-0.5,0-0.8c0-9.8,0-19.6,0-29.3
			c0.2-0.2,0.4-0.4,0.4-0.7c0-0.6,0-1.2,0-1.8c0-7.4,0-14.8,0-22.2c0-1.9,0-3.8,0-5.7c0-0.5,0-1.1-0.1-1.6c0-0.7,0.1-1.5,0.1-2.2
			c0-6.7,0-13.4,0-20c0-2.7,0-5.5,0-8.2c0-0.3,0-0.7-0.1-1c0-0.1-0.1-0.2-0.3-0.3c-0.1-0.1-0.2-0.1-0.4-0.1c-0.5,0-1.1,0-1.6-0.1
			c-1-0.2-2-0.2-3.1-0.2c-8.2,0-16.4,0-24.5,0c-0.5,0-1.1,0-1.6,0c-0.3,0-0.5,0.1-0.8,0.1L386.2,321.6z"/>
		<path class="st17" d="M193.7,385.8c0.5,0,1,0,1.4,0c9.8,0,19.6,0,29.4,0c0.3,0,0.7,0,1,0c0,0.3,0.1,0.7,0.1,1c0,0.6,0,1.2,0,1.8
			c0,8.8,0,17.5,0,26.3c0,1,0,2,0,3.1c0,0.8,0,1.6,0,2.4c0,7.9,0,15.9,0,23.8c0,1.9,0,3.8,0,5.7c-0.3,0-0.7,0.1-1,0.1
			c-0.6,0-1.2,0-1.8,0c-8.9,0-17.7,0-26.6,0c-0.8,0-1.6,0-2.5-0.1c0-0.8,0-1.6,0-2.4c0-8.9,0-17.8,0-26.7c0-0.9,0-1.8,0-2.7
			c0-0.7,0-1.5,0-2.2c0-9.2,0-18.5,0-27.7C193.7,387.5,193.8,386.7,193.7,385.8L193.7,385.8z"/>
		<path class="st18" d="M225.7,450.1c0-1.9,0-3.8,0-5.7c0-7.9,0-15.9,0-23.8c0-0.8,0-1.6,0-2.4c0.7,0.1,1.4,0.1,2,0.1
			c3.1,0,6.3,0,9.4,0c6.2,0,12.4,0,18.6,0c0.7,0,1.5,0,2.2,0.1c0,10.1,0,20.1,0,30.2c0,0.5,0,1.1,0,1.6c-0.7,0.1-1.4,0.1-2,0.1
			c-3.8,0-7.6,0-11.5,0c-5.5,0-11.1,0-16.6,0C227.2,450.1,226.4,450.2,225.7,450.1z"/>
		<path class="st19" d="M354.3,450.1c-0.1,0-0.3,0-0.4,0c-0.3,0-0.7,0-1,0c-9.7,0-19.4,0-29.1,0c-0.5,0-1,0-1.4,0
			c-0.2,0-0.3,0-0.5,0c0.1-0.6,0.1-1.2,0.1-1.8c0-9.6,0-19.1,0-28.7c0-0.5,0-0.9-0.1-1.4c0,0,0,0,0,0c0.8-0.1,1.6-0.1,2.4-0.1
			c9.1,0,18.1,0,27.2,0c0.9,0,1.8,0,2.7,0c0.1,0.8,0.1,1.6,0.1,2.4c0,9.2,0,18.4,0,27.5C354.3,448.8,354.3,449.5,354.3,450.1z"/>
		<path class="st17" d="M258,450.1c0-0.5,0-1.1,0-1.6c0-10.1,0-20.1,0-30.2c0.7-0.1,1.5-0.1,2.2-0.1c9,0,18.1,0,27.1,0
			c0.6,0,1.2,0,1.8,0c0.3,0,0.5-0.1,0.8-0.1c0,0.1,0,0.1,0,0.2c0,0.7,0,1.5,0,2.2c0,8.3,0,16.6,0,24.9c0,1.6,0,3.1,0,4.7
			c-0.3,0-0.5,0.1-0.8,0.1c-0.5,0-1,0-1.4,0c-9.2,0-18.3,0-27.5,0C259.5,450.1,258.8,450.2,258,450.1z"/>
		<path class="st18" d="M290,450.1c0-1.6,0-3.1,0-4.7c0-8.3,0-16.6,0-24.9c0-0.7,0-1.5,0-2.2c0.7-0.1,1.5-0.1,2.2-0.1
			c5.4,0,10.9,0,16.3,0c3.8,0,7.6,0,11.4,0c0.7,0,1.4,0,2,0c0,0.5,0.1,0.9,0.1,1.4c0,9.6,0,19.1,0,28.7c0,0.6,0,1.2-0.1,1.8
			c-5.3,0-10.6,0-16,0c-4.6,0-9.3,0-13.9,0C291.4,450.1,290.7,450.2,290,450.1z"/>
		<path class="st5" d="M322.4,450.2c0.5,0,1,0,1.4,0c9.7,0,19.4,0,29.1,0c0.3,0,0.7,0,1,0c0,0.1-0.1,0.3-0.1,0.4
			c-0.1,0.2-0.3,0.3-0.5,0.4c-0.3,0.1-0.5,0.1-0.8,0.1c-1,0-1.9,0-2.9,0c-9.1,0-18.2,0-27.3,0C322.4,450.7,322.4,450.4,322.4,450.2z
			"/>
		<path class="st20" d="M321.9,193.2c0-4.7,0-9.4,0-14.1c0-5.9,0-11.8,0-17.8c0-0.1,0-0.3,0-0.4c0.2,0,0.4,0,0.6,0.1
			c0.4,0.2,0.9,0.3,1.4,0.3c0.5,0,1.1,0,1.6,0c9.6,0,19.2,0,28.7,0c0,9.8,0,19.7,0,29.5c0,0.8,0,1.6,0,2.4c-0.7,0-1.5,0-2.2,0
			c-9.2,0-18.4,0-27.6,0c-0.5,0-1.1,0-1.6,0c-0.3,0-0.5,0.1-0.8,0.1C322,193.4,322,193.3,321.9,193.2z"/>
		<path class="st15" d="M354.3,193.4c0-0.8,0-1.6,0-2.4c0-9.8,0-19.7,0-29.5c10.6,0,21.3,0,31.9,0c0,9.8,0,19.5,0,29.3
			c0,0.9,0,1.8,0,2.7c0,0,0,0,0,0c-10.1,0-20.2,0-30.4,0C355.3,193.3,354.8,193.4,354.3,193.4L354.3,193.4z"/>
		<path class="st16" d="M354.3,450.1c0-0.7,0-1.4,0-2c0-9.2,0-18.4,0-27.5c0-0.8,0-1.6-0.1-2.4c0,0,0,0,0,0c0.8,0,1.6,0.1,2.4,0.1
			c9.1,0,18.2,0,27.3,0c0.7,0,1.5,0,2.2,0c0,0.8,0,1.6,0,2.4c0,9.8,0,19.7,0,29.5c0,0,0,0,0,0c-9.8,0-19.7,0-29.5,0
			C355.9,450.1,355.1,450.1,354.3,450.1z"/>
		<path class="st21" d="M386.3,450.2c0-9.8,0-19.7,0-29.5c0-0.8,0-1.6,0-2.4c0-0.9,0-1.8,0-2.7c0-9,0-18,0-27c0-0.9,0-1.8,0-2.7
			c0,0,0,0,0,0c0.7,0,1.5,0,2.3,0c9.3,0,18.5,0,27.8,0c0.6,0,1.2,0,1.8,0c0,9.8,0,19.6,0,29.3c0,0.3,0,0.5,0,0.8
			c0,0.6,0.1,1.1,0.3,1.6c0.1,0.2,0.1,0.4,0.1,0.6c0,9.9,0,19.8,0,29.7c0,0.8,0,1.5,0,2.3c-0.7,0-1.4,0-2,0
			C406.4,450.2,396.4,450.2,386.3,450.2z"/>
		<path class="st22" d="M354.2,418.1c-0.9,0-1.8,0-2.7,0c-9.1,0-18.1,0-27.2,0c-0.8,0-1.6,0-2.4,0.1c0-0.5,0.1-0.9,0.1-1.4
			c0-1.4,0-2.9,0-4.3c0-8.1,0-16.2,0-24.3c0-0.7-0.1-1.5,0.1-2.2c0.3,0,0.7-0.1,1-0.1c0.5,0,1.1,0,1.6,0c9,0,18.1,0,27.1,0
			c0.8,0,1.6,0,2.4,0c0,0,0,0,0,0c0,10,0,19.9,0,29.9C354.3,416.5,354.2,417.3,354.2,418.1L354.2,418.1z"/>
		<path class="st23" d="M354.4,321.7c0.7-0.1,1.4-0.1,2-0.1c4.6,0,9.2,0,13.9,0c4.6,0,9.2,0,13.9,0c0.7,0,1.4,0,2,0c0,0,0,0.1,0,0.1
			c0.1,0.7,0.1,1.4,0.1,2c0,9.4,0,18.7,0,28.1c0,0.7,0,1.4-0.1,2c-0.7,0-1.5,0-2.2,0c-9.2,0-18.4,0-27.6,0c-0.7,0-1.4,0-2,0
			c0-0.6-0.1-1.2-0.1-1.8c0-9.4,0-18.9,0-28.3C354.3,323.1,354.2,322.4,354.4,321.7z"/>
		<path class="st24" d="M354.4,353.9c0.7,0,1.4,0,2,0c9.2,0,18.4,0,27.6,0c0.7,0,1.5,0,2.2,0c0,0,0.1,0,0.1,0c0,0.7,0,1.4,0,2
			c0,3.4,0,6.8,0,10.2c0,6.6,0,13.2,0,19.8c0,0,0,0,0,0c-10,0-20,0-30,0c-0.7,0-1.4,0-2-0.1c0,0,0,0,0,0c0-0.7,0-1.4,0-2
			c0-9.2,0-18.4,0-27.6C354.3,355.4,354.3,354.7,354.4,353.9z"/>
		<path class="st22" d="M193.7,289.5c-0.6,0.1-1.2,0.1-1.8,0.1c-1.9,0-3.8,0-5.7,0c-7.4,0-14.7,0-22.1,0c-0.5,0-1.1,0-1.6,0
			c-0.3,0-0.7-0.1-1-0.1c0-0.5,0-1.1,0-1.6c0-19.9,0-39.8,0-59.7c0-0.9,0-1.8,0-2.7c0.3-0.1,0.5-0.2,0.8-0.2c0.5,0,1,0,1.4,0
			c9.3,0,18.6,0,27.9,0c0.7,0,1.4,0,2,0.1c0,0.3,0.1,0.7,0.1,1c0,0.5,0,1.1,0,1.6c0,19.6,0,39.2,0,58.8
			C193.7,287.8,193.7,288.7,193.7,289.5z"/>
		<path class="st25" d="M322,193.5c0.3,0,0.5-0.1,0.8-0.1c0.5,0,1.1,0,1.6,0c9.2,0,18.4,0,27.6,0c0.7,0,1.5,0,2.2,0c0,0,0,0,0,0
			c0,0.9,0,1.8,0,2.7c0,9,0,18,0,27c0,0.7-0.1,1.5,0.1,2.2c-0.1,0.7-0.1,1.5-0.1,2.2c0,9.2,0,18.4,0,27.6c0,0.8,0,1.6-0.1,2.5l0,0
			c-3.9,0-7.9,0-11.8,0c-5.9,0-11.8,0-17.7,0c-0.6,0-1.2,0-1.8,0c-0.3,0-0.5-0.1-0.8-0.2c0-0.7,0-1.5,0-2.2c0-20.4,0-40.7,0-61.1
			C322,193.9,322,193.7,322,193.5z"/>
		<path class="st26" d="M193.8,385.9c0,0.8,0,1.6,0,2.4c0,9.2,0,18.5,0,27.7c0,0.7,0,1.5,0,2.2c-0.8-0.1-1.6-0.1-2.4-0.1
			c-9,0-18.1,0-27.1,0c-0.6,0-1.2,0-1.8,0c-0.3,0-0.5-0.1-0.8-0.1c0-0.3-0.1-0.5-0.1-0.8c0-0.4,0-0.8,0-1.2c0-9.3,0-18.7,0-28
			c0-0.7-0.1-1.4,0.1-2c0.3,0,0.5-0.1,0.8-0.1c0.4,0,0.8,0,1.2,0c9.7,0,19.5,0,29.2,0C193.1,385.9,193.4,385.9,193.8,385.9z"/>
		<path class="st15" d="M386.2,257.6c0,0.3,0,0.5,0,0.8c0,10.4,0,20.8,0,31.2c-9.4,0-18.9,0-28.3,0c-1.2,0-2.4,0-3.7,0
			c0-9.3,0-18.6,0-27.9c0-0.9,0-1.8,0-2.7c0-0.5-0.1-0.9-0.1-1.4c0,0,0,0,0,0c0.8,0,1.6,0.1,2.4,0.1c9.1,0,18.2,0,27.3,0
			C384.7,257.6,385.5,257.6,386.2,257.6z"/>
		<path class="st27" d="M386.2,353.9c0-0.7,0.1-1.4,0.1-2c0-9.4,0-18.7,0-28.1c0-0.7,0-1.4-0.1-2c0.3,0,0.5-0.1,0.8-0.1
			c0.5,0,1.1,0,1.6,0c8.2,0,16.4,0,24.5,0c1,0,2,0,3.1,0.2c0.5,0.1,1.1,0.1,1.6,0.1c0.1,0,0.3,0.1,0.4,0.1c0.1,0.1,0.2,0.2,0.3,0.3
			c0.1,0.3,0.1,0.7,0.1,1c0,2.7,0,5.5,0,8.2c0,6.7,0,13.4,0,20c0,0.7,0,1.5-0.1,2.2c-0.5,0-0.9,0.1-1.4,0.1c-1,0-2,0-3.1,0
			c-9.2,0-18.5,0-27.7,0L386.2,353.9z"/>
		<path class="st10" d="M386.2,257.6c-0.7,0-1.5,0-2.2,0c-9.1,0-18.2,0-27.3,0c-0.8,0-1.6,0-2.4-0.1c0-0.8,0.1-1.6,0.1-2.5
			c0-9.2,0-18.4,0-27.6c0-0.7-0.1-1.5,0.1-2.2c0.9,0,1.8,0,2.7,0c9.7,0,19.5,0,29.2,0c0,0.7,0,1.4,0,2c0,9.4,0,18.8,0,28.2
			C386.3,256.3,386.2,256.9,386.2,257.6z"/>
		<path class="st19" d="M386.3,353.9c9.2,0,18.5,0,27.7,0c1,0,2,0,3.1,0c0.5,0,0.9-0.1,1.4-0.1c0.1,0.5,0.1,1.1,0.1,1.6
			c0,1.9,0,3.8,0,5.7c0,7.4,0,14.8,0,22.2c0,0.6,0,1.2,0,1.8c0,0.3-0.2,0.5-0.4,0.7c-0.6,0-1.2,0-1.8,0c-9.3,0-18.5,0-27.8,0
			c-0.8,0-1.5,0-2.3,0c0-6.6,0-13.2,0-19.8c0-3.4,0-6.8,0-10.2C386.3,355.3,386.3,354.6,386.3,353.9z"/>
		<path class="st28" d="M386.2,225.3c-9.7,0-19.5,0-29.2,0c-0.9,0-1.8,0-2.7,0c-0.1-0.7-0.1-1.5-0.1-2.2c0-9,0-18,0-27
			c0-0.9,0-1.8,0-2.7c0.5,0,1.1,0,1.6,0c10.1,0,20.2,0,30.4,0c0,2.2,0,4.5,0,6.7c0,7.7,0,15.3,0,23
			C386.3,223.8,386.2,224.5,386.2,225.3z"/>
		<path class="st19" d="M354.3,385.8c0.7,0,1.4,0.1,2,0.1c10,0,20,0,30,0c0,0.9,0,1.8,0,2.7c0,9,0,18,0,27c0,0.9,0,1.8,0,2.7
			c-0.7,0-1.5,0-2.2,0c-9.1,0-18.2,0-27.3,0c-0.8,0-1.6,0-2.4-0.1c0-0.8,0.1-1.6,0.1-2.5C354.3,405.7,354.3,395.8,354.3,385.8z"/>
	</g>
</g>
</svg>
