<?xml version="1.0" encoding="utf-8"?>
<!-- Generator: Adobe Illustrator 23.0.1, SVG Export Plug-In . SVG Version: 6.00 Build 0)  -->
<svg version="1.1"
	 id="svg8" inkscape:export-filename="C:\Users\syuilo\projects\misskey\assets\favicon\32.png" inkscape:export-xdpi="6" inkscape:export-ydpi="6" inkscape:version="0.92.1 r15371" sodipodi:docname="mi.svg" xmlns:cc="http://creativecommons.org/ns#" xmlns:dc="http://purl.org/dc/elements/1.1/" xmlns:inkscape="http://www.inkscape.org/namespaces/inkscape" xmlns:rdf="http://www.w3.org/1999/02/22-rdf-syntax-ns#" xmlns:sodipodi="http://sodipodi.sourceforge.net/DTD/sodipodi-0.dtd" xmlns:svg="http://www.w3.org/2000/svg"
	 xmlns="http://www.w3.org/2000/svg" xmlns:xlink="http://www.w3.org/1999/xlink" x="0px" y="0px" viewBox="0 0 512 512"
	 style="enable-background:new 0 0 512 512;" xml:space="preserve">
<style type="text/css">
	.st0{fill:#FFFFFF;}
</style>
<defs>
	
	
		<inkscape:path-effect  effect="simplify" helper_size="0" id="path-effect5115" is_visible="true" simplifyJustCoalesce="false" simplify_individual_paths="false" simplify_just_coalesce="false" simplifyindividualpaths="false" smooth_angles="360" steps="1" threshold="0.000408163">
		</inkscape:path-effect>
	
		<inkscape:path-effect  effect="simplify" helper_size="0" id="path-effect5111" is_visible="true" simplifyJustCoalesce="false" simplify_individual_paths="false" simplify_just_coalesce="false" simplifyindividualpaths="false" smooth_angles="360" steps="1" threshold="0.000408163">
		</inkscape:path-effect>
	
		<inkscape:path-effect  effect="simplify" helper_size="0" id="path-effect5104" is_visible="true" simplifyJustCoalesce="false" simplify_individual_paths="false" simplify_just_coalesce="false" simplifyindividualpaths="false" smooth_angles="360" steps="1" threshold="0.000408163">
		</inkscape:path-effect>
</defs>
<sodipodi:namedview  bordercolor="#666666" borderopacity="1.0" fit-margin-bottom="0" fit-margin-left="0" fit-margin-right="0" fit-margin-top="0" guidetolerance="1" id="base" inkscape:bbox-nodes="true" inkscape:current-layer="g4502" inkscape:cx="232.39583" inkscape:cy="251.50613" inkscape:document-units="px" inkscape:object-paths="true" inkscape:pageopacity="0.0" inkscape:pageshadow="2" inkscape:snap-bbox="true" inkscape:snap-bbox-edge-midpoints="false" inkscape:snap-center="true" inkscape:snap-midpoints="true" inkscape:snap-nodes="false" inkscape:snap-object-midpoints="true" inkscape:snap-others="false" inkscape:snap-page="true" inkscape:snap-smooth-nodes="true" inkscape:window-height="1027" inkscape:window-maximized="1" inkscape:window-width="1920" inkscape:window-x="-8" inkscape:window-y="1072" inkscape:zoom="1.4142136" objecttolerance="1" pagecolor="#ffffff" showgrid="true" units="px">
	
		<inkscape:grid  empcolor="#ff3fff" empopacity="0.25098039" empspacing="4" id="grid4504" spacingx="4.2333334" spacingy="4.2333334" type="xygrid">
		</inkscape:grid>
</sodipodi:namedview>
<g>
	<g>
		<path class="st0" d="M512.4,512.4c-170.7,0-341.3,0-512,0c0-170.6,0-341.3,0-511.9c0,0,0.1-0.1,0.1-0.1c0.5,0,1.1,0,1.6,0
			c169.6,0,339.3,0,508.9,0c0.4,0,0.8,0,1.2,0c0,0,0.1,0.1,0.1,0.1c0,0.2,0,0.4,0,0.6c0,129.4,0,258.8,0,388.3c0,40.3,0,80.7,0,121
			C512.4,511.1,512.4,511.7,512.4,512.4z M258,482.4C258,482.4,258,482.4,258,482.4c22.7,0,45.5,0,68.2,0c20.7,0,41.4,0,62,0
			c8.9,0,17.9,0,26.8,0c0.6,0,1.2,0,1.8,0c0.2,0,0.4,0,0.6-0.1c0.5-0.1,0.9-0.5,0.9-0.9c0-0.3,0.1-0.5,0.1-0.8c0-0.6,0-1.2,0-1.8
			c0-8.4,0-16.8,0-25.2c0-0.7,0-1.4,0-2c0-0.2,0.1-0.4,0.1-0.6c0-0.3,0.4-0.6,0.7-0.6c0.2,0,0.4-0.1,0.6-0.1c0.7,0,1.4,0,2,0
			c8.3,0,16.7,0,25,0c0.8,0,1.5,0,2.3,0c0.2,0,0.4-0.1,0.6-0.1c0.2,0,0.5-0.3,0.5-0.6c0-0.3,0.1-0.5,0.1-0.8c0-0.7,0-1.4,0-2
			c0-8.3,0-16.7,0-25c0-0.8,0-1.5,0-2.3c0-0.2,0.1-0.4,0.1-0.6c0.1-0.2,0.2-0.4,0.4-0.4c0.2-0.1,0.4-0.1,0.6-0.1c0.8,0,1.5,0,2.3,0
			c8.4,0,16.8,0,25.2,0c0.8,0,1.5,0,2.3,0c0.2,0,0.4,0,0.6-0.1c0.3-0.1,0.5-0.3,0.6-0.5c0.1-0.3,0.2-0.5,0.2-0.8c0-0.9,0-1.8,0-2.7
			c0-61.6,0-123.2,0-184.7c0-0.5,0-1.1,0-1.6c0-0.4,0-0.8-0.1-1.2c0-0.2-0.1-0.4-0.2-0.6c-0.1-0.3-0.3-0.5-0.6-0.5
			c-0.3-0.1-0.5-0.1-0.8-0.1c-0.7,0-1.4,0-2,0c-8.4,0-16.8,0-25.2,0c-0.7,0-1.4,0-2,0c-0.2,0-0.4-0.1-0.6-0.1
			c-0.3,0-0.6-0.4-0.6-0.7c0-0.2-0.1-0.4-0.1-0.6c0-0.7,0-1.4,0-2c0-8.3,0-16.7,0-25c0-0.8,0-1.5,0-2.3c0-0.2-0.1-0.4-0.1-0.6
			c-0.1-0.3-0.3-0.5-0.6-0.5c-0.3-0.1-0.5-0.1-0.8-0.1c-0.7,0-1.4,0-2,0c-8.3,0-16.7,0-25,0c-0.7,0-1.4,0-2,0c-0.2,0-0.4,0-0.6-0.1
			c-0.3,0-0.7-0.4-0.7-0.7c0-0.3-0.1-0.5-0.1-0.8c0-0.8,0-1.5,0-2.3c0-18.8,0-37.7,0-56.5c0-0.8,0-1.5,0-2.3c0-0.3,0-0.5-0.1-0.8
			c0-0.3-0.4-0.7-0.7-0.7c-0.2,0-0.4-0.1-0.6-0.1c-0.7,0-1.4,0-2,0c-8.5,0-16.9,0-25.4,0c-0.8,0-1.5,0-2.3,0c-0.2,0-0.4-0.1-0.6-0.1
			c-0.2-0.1-0.3-0.2-0.4-0.4c-0.1-0.2-0.1-0.4-0.1-0.6c0-0.8,0-1.6,0-2.5c0-18.9,0-37.8,0-56.7c0-0.8,0-1.5,0-2.3
			c0-0.3,0-0.5-0.1-0.8c0-0.3-0.4-0.6-0.7-0.7c-0.3,0-0.5-0.1-0.8-0.1c-0.7,0-1.4,0-2,0c-8.3,0-16.7,0-25,0c-0.7,0-1.4,0-2,0
			c-0.2,0-0.4-0.1-0.6-0.1c-0.3,0-0.6-0.4-0.7-0.7c0-0.2-0.1-0.4-0.1-0.6c0-0.7,0-1.4,0-2c0-8.3,0-16.7,0-25c0-0.7,0-1.4,0-2
			c0-0.3-0.1-0.5-0.1-0.8c0-0.3-0.4-0.6-0.7-0.7c-0.2,0-0.4-0.1-0.6-0.1c-0.6,0-1.2,0-1.8,0c-8.6,0-17.2,0-25.8,0
			c-0.6,0-1.2,0-1.8,0c-0.2,0-0.4,0-0.6,0.1c-0.3,0-0.6,0.4-0.7,0.7c0,0.3-0.1,0.5-0.1,0.8c0,0.7,0,1.4,0,2c0,15.2,0,30.3,0,45.5
			c0,5.6,0,11.2,0,16.8c0,19.7,0,39.5,0,59.2c0,0.6,0,1.2,0,1.8c0,0.2-0.1,0.4-0.1,0.6c0,0.3-0.4,0.6-0.7,0.7
			c-0.3,0-0.5,0.1-0.8,0.1c-0.8,0-1.6,0-2.5,0c-40.1,0-80.1,0-120.2,0c-0.5,0-1.1,0-1.6,0c-0.3,0-0.7,0-1,0c-0.2,0-0.4-0.1-0.6-0.1
			c-0.3-0.1-0.5-0.3-0.6-0.5c-0.1-0.2-0.1-0.4-0.1-0.6c0-0.6,0-1.2,0-1.8c0-20.8,0-41.5,0-62.3c0-19.9,0-39.9,0-59.8
			c0-0.6,0-1.2,0-1.8c0-0.2-0.1-0.4-0.1-0.6c0-0.2-0.3-0.5-0.6-0.6c-0.2,0-0.4-0.1-0.6-0.1c-0.5,0-1.1,0-1.6,0c-8.9,0-17.7,0-26.6,0
			c-0.5,0-1,0-1.4,0c-0.2,0-0.4,0-0.6,0.1c-0.3,0.1-0.5,0.2-0.6,0.5c-0.1,0.2-0.1,0.4-0.1,0.6c0,0.7,0,1.5,0,2.3
			c0,8.4,0,16.8,0,25.2c0,0.7,0,1.4,0,2c0,0.2-0.1,0.4-0.1,0.6c-0.1,0.3-0.4,0.6-0.7,0.7c-0.2,0-0.4,0.1-0.6,0.1c-0.7,0-1.4,0-2,0
			c-8.3,0-16.7,0-25,0c-0.8,0-1.5,0-2.3,0c-0.2,0-0.4,0.1-0.6,0.1c-0.3,0.1-0.5,0.3-0.5,0.6c-0.1,0.3-0.1,0.5-0.1,0.8
			c0,0.8,0,1.5,0,2.3c0,19,0,38,0,56.9c0,0.8,0,1.5,0,2.3c0,0.2-0.1,0.4-0.1,0.6c0,0.2-0.3,0.5-0.6,0.5c-0.2,0-0.4,0.1-0.6,0.1
			c-0.7,0-1.4,0-2,0c-8.5,0-16.9,0-25.4,0c-0.8,0-1.5,0-2.3,0c-0.2,0-0.4,0.1-0.6,0.1c-0.2,0.1-0.3,0.2-0.4,0.4
			c-0.1,0.2-0.1,0.4-0.2,0.6c0,0.5-0.1,1.1-0.1,1.6c0,8.9,0,17.9,0,26.8c0,0.7,0,1.4,0.1,2c0.1,1,0.1,2,0.1,3.1c0,8.7,0,17.5,0,26.2
			c0,0.6,0,1.2,0,1.8c0,0.2-0.1,0.4-0.1,0.6c-0.1,0.4-0.5,0.7-0.9,0.8c-0.3,0-0.5,0.1-0.8,0.1c-0.6,0-1.2,0-1.8,0
			c-8.4,0-16.8,0-25.2,0c-0.7,0-1.4,0-2,0c-0.2,0-0.4,0-0.6,0.1c-0.3,0.1-0.5,0.3-0.6,0.5c-0.1,0.2-0.1,0.4-0.1,0.6
			c0,0.8,0,1.5,0,2.3c0,8.3,0,16.7,0,25c0,0.6,0,1.2,0,1.8c0,0.3,0,0.5-0.1,0.8c0,0.3-0.4,0.7-0.7,0.7c-0.2,0-0.4,0.1-0.6,0.1
			c-0.7,0-1.4,0-2,0c-8.3,0-16.7,0-25,0c-0.7,0-1.4,0-2,0c-0.3,0-0.5,0.1-0.8,0.1c-0.3,0-0.7,0.4-0.7,0.7c0,0.3-0.1,0.5-0.1,0.8
			c0,0.9,0,1.8,0,2.7c0,61.5,0,123,0,184.5c0,0.6,0,1.2,0,1.8c0,0.3,0,0.7,0,1c0,0.2,0,0.4,0.1,0.6c0.1,0.3,0.3,0.5,0.5,0.6
			c0.2,0.1,0.4,0.1,0.6,0.1c0.8,0,1.5,0,2.3,0c8.3,0,16.7,0,25,0c0.7,0,1.4,0,2,0c0.3,0,0.5,0.1,0.8,0.1c0.2,0,0.5,0.3,0.5,0.5
			c0,0.3,0.1,0.5,0.1,0.8c0,0.7,0,1.4,0,2c0,8.3,0,16.7,0,25c0,0.8,0,1.5,0,2.3c0,0.2,0.1,0.4,0.1,0.6c0.1,0.3,0.3,0.4,0.6,0.5
			c0.2,0.1,0.4,0.1,0.6,0.1c0.7,0,1.4,0,2,0c8.4,0,16.8,0,25.2,0c0.7,0,1.4,0,2,0c0.2,0,0.4,0.1,0.6,0.1c0.2,0,0.5,0.3,0.6,0.5
			c0.1,0.2,0.1,0.4,0.1,0.6c0,0.8,0,1.5,0,2.3c0,8.3,0,16.7,0,25c0,0.8,0,1.5,0,2.3c0,0.3,0.1,0.5,0.2,0.8c0.1,0.3,0.3,0.5,0.6,0.5
			c0.3,0.1,0.5,0.1,0.8,0.1c0.8,0,1.5,0,2.3,0c10.2,0,20.5,0,30.7,0c22.2,0,44.4,0,66.6,0C218.2,482.4,238.1,482.4,258,482.4z"/>
		<path d="M258,482.4c-19.9,0-39.9,0-59.8,0c-22.2,0-44.4,0-66.6,0c-10.2,0-20.5,0-30.7,0c-0.8,0-1.5,0-2.3,0
			c-0.3,0-0.5-0.1-0.8-0.1c-0.3-0.1-0.5-0.3-0.6-0.5c-0.1-0.3-0.1-0.5-0.2-0.8c0-0.8,0-1.5,0-2.3c0-8.3,0-16.7,0-25
			c0-0.8,0-1.5,0-2.3c0-0.2-0.1-0.4-0.1-0.6c-0.1-0.2-0.4-0.5-0.6-0.5c-0.2,0-0.4-0.1-0.6-0.1c-0.7,0-1.4,0-2,0
			c-8.4,0-16.8,0-25.2,0c-0.7,0-1.4,0-2,0c-0.2,0-0.4,0-0.6-0.1c-0.3-0.1-0.5-0.2-0.6-0.5c-0.1-0.2-0.1-0.4-0.1-0.6
			c0-0.8,0-1.5,0-2.3c0-8.3,0-16.7,0-25c0-0.7,0-1.4,0-2c0-0.3-0.1-0.5-0.1-0.8c0-0.2-0.3-0.5-0.5-0.5c-0.3,0-0.5-0.1-0.8-0.1
			c-0.7,0-1.4,0-2,0c-8.3,0-16.7,0-25,0c-0.8,0-1.5,0-2.3,0c-0.2,0-0.4-0.1-0.6-0.1c-0.3-0.1-0.5-0.3-0.5-0.6
			c-0.1-0.2-0.1-0.4-0.1-0.6c0-0.3,0-0.7,0-1c0-0.6,0-1.2,0-1.8c0-61.5,0-123,0-184.5c0-0.9,0-1.8,0-2.7c0-0.3,0.1-0.5,0.1-0.8
			c0-0.3,0.4-0.6,0.7-0.7c0.3,0,0.5-0.1,0.8-0.1c0.7,0,1.4,0,2,0c8.3,0,16.7,0,25,0c0.7,0,1.4,0,2,0c0.2,0,0.4-0.1,0.6-0.1
			c0.3,0,0.6-0.4,0.7-0.7c0-0.3,0.1-0.5,0.1-0.8c0-0.6,0-1.2,0-1.8c0-8.3,0-16.7,0-25c0-0.8,0-1.5,0-2.3c0-0.2,0.1-0.4,0.1-0.6
			c0.1-0.3,0.3-0.5,0.6-0.5c0.2-0.1,0.4-0.1,0.6-0.1c0.7,0,1.4,0,2,0c8.4,0,16.8,0,25.2,0c0.6,0,1.2,0,1.8,0c0.3,0,0.5,0,0.8-0.1
			c0.4,0,0.8-0.4,0.9-0.8c0-0.2,0.1-0.4,0.1-0.6c0-0.6,0-1.2,0-1.8c0-8.7,0-17.5,0-26.2c0-1,0-2-0.1-3.1c-0.1-0.7-0.1-1.4-0.1-2
			c0-8.9,0-17.9,0-26.8c0-0.5,0-1.1,0.1-1.6c0-0.2,0.1-0.4,0.2-0.6c0.1-0.2,0.2-0.4,0.4-0.4c0.2-0.1,0.4-0.1,0.6-0.1
			c0.8,0,1.5,0,2.3,0c8.5,0,16.9,0,25.4,0c0.7,0,1.4,0,2,0c0.2,0,0.4-0.1,0.6-0.1c0.2,0,0.5-0.3,0.6-0.5c0-0.2,0.1-0.4,0.1-0.6
			c0-0.8,0-1.5,0-2.3c0-19,0-38,0-56.9c0-0.8,0-1.5,0-2.3c0-0.3,0.1-0.5,0.1-0.8c0.1-0.3,0.3-0.5,0.5-0.6c0.2-0.1,0.4-0.1,0.6-0.1
			c0.8,0,1.5,0,2.3,0c8.3,0,16.7,0,25,0c0.7,0,1.4,0,2,0c0.2,0,0.4,0,0.6-0.1c0.3,0,0.7-0.4,0.7-0.7c0-0.2,0.1-0.4,0.1-0.6
			c0-0.7,0-1.4,0-2c0-8.4,0-16.8,0-25.2c0-0.8,0-1.5,0-2.3c0-0.2,0.1-0.4,0.1-0.6c0.1-0.3,0.3-0.4,0.6-0.5c0.2-0.1,0.4-0.1,0.6-0.1
			c0.5,0,1,0,1.4,0c8.9,0,17.7,0,26.6,0c0.5,0,1.1,0,1.6,0c0.2,0,0.4,0.1,0.6,0.1c0.2,0,0.5,0.3,0.6,0.6c0,0.2,0.1,0.4,0.1,0.6
			c0,0.6,0,1.2,0,1.8c0,19.9,0,39.9,0,59.8c0,20.8,0,41.5,0,62.3c0,0.6,0,1.2,0,1.8c0,0.2,0.1,0.4,0.1,0.6c0.1,0.3,0.3,0.5,0.6,0.5
			c0.2,0.1,0.4,0.1,0.6,0.1c0.3,0,0.7,0,1,0c0.5,0,1.1,0,1.6,0c40.1,0,80.1,0,120.2,0c0.8,0,1.6,0,2.5,0c0.3,0,0.5-0.1,0.8-0.1
			c0.3-0.1,0.6-0.4,0.7-0.7c0-0.2,0.1-0.4,0.1-0.6c0-0.6,0-1.2,0-1.8c0-19.7,0-39.5,0-59.2c0-5.6,0-11.2,0-16.8
			c0-15.2,0-30.3,0-45.5c0-0.7,0-1.4,0-2c0-0.3,0.1-0.5,0.1-0.8c0.1-0.3,0.4-0.6,0.7-0.7c0.2,0,0.4-0.1,0.6-0.1c0.6,0,1.2,0,1.8,0
			c8.6,0,17.2,0,25.8,0c0.6,0,1.2,0,1.8,0c0.2,0,0.4,0,0.6,0.1c0.3,0,0.7,0.4,0.7,0.7c0,0.3,0.1,0.5,0.1,0.8c0,0.7,0,1.4,0,2
			c0,8.3,0,16.7,0,25c0,0.7,0,1.4,0,2c0,0.2,0,0.4,0.1,0.6c0,0.3,0.4,0.7,0.7,0.7c0.2,0,0.4,0.1,0.6,0.1c0.7,0,1.4,0,2,0
			c8.3,0,16.7,0,25,0c0.7,0,1.4,0,2,0c0.3,0,0.5,0.1,0.8,0.1c0.3,0.1,0.6,0.4,0.7,0.7c0,0.3,0.1,0.5,0.1,0.8c0,0.8,0,1.5,0,2.3
			c0,18.9,0,37.8,0,56.7c0,0.8,0,1.6,0,2.5c0,0.2,0.1,0.4,0.1,0.6c0.1,0.2,0.2,0.4,0.4,0.4c0.2,0,0.4,0.1,0.6,0.1c0.8,0,1.5,0,2.3,0
			c8.5,0,16.9,0,25.4,0c0.7,0,1.4,0,2,0c0.2,0,0.4,0.1,0.6,0.1c0.3,0.1,0.6,0.4,0.7,0.7c0,0.3,0.1,0.5,0.1,0.8c0,0.8,0,1.5,0,2.3
			c0,18.8,0,37.7,0,56.5c0,0.8,0,1.5,0,2.3c0,0.3,0.1,0.5,0.1,0.8c0,0.3,0.4,0.6,0.7,0.7c0.2,0,0.4,0.1,0.6,0.1c0.7,0,1.4,0,2,0
			c8.3,0,16.7,0,25,0c0.7,0,1.4,0,2,0c0.3,0,0.5,0.1,0.8,0.1c0.3,0.1,0.5,0.3,0.6,0.5c0.1,0.2,0.1,0.4,0.1,0.6c0,0.8,0,1.5,0,2.3
			c0,8.3,0,16.7,0,25c0,0.7,0,1.4,0,2c0,0.2,0,0.4,0.1,0.6c0,0.3,0.4,0.7,0.6,0.7c0.2,0,0.4,0.1,0.6,0.1c0.7,0,1.4,0,2,0
			c8.4,0,16.8,0,25.2,0c0.7,0,1.4,0,2,0c0.3,0,0.5,0,0.8,0.1c0.3,0.1,0.5,0.3,0.6,0.5c0.1,0.2,0.1,0.4,0.2,0.6
			c0,0.4,0.1,0.8,0.1,1.2c0,0.5,0,1.1,0,1.6c0,61.6,0,123.2,0,184.7c0,0.9,0,1.8,0,2.7c0,0.3-0.1,0.5-0.2,0.8
			c-0.1,0.3-0.3,0.5-0.6,0.5c-0.2,0.1-0.4,0.1-0.6,0.1c-0.8,0-1.5,0-2.3,0c-8.4,0-16.8,0-25.2,0c-0.8,0-1.5,0-2.3,0
			c-0.2,0-0.4,0.1-0.6,0.1c-0.2,0.1-0.3,0.2-0.4,0.4c-0.1,0.2-0.1,0.4-0.1,0.6c0,0.8,0,1.5,0,2.3c0,8.3,0,16.7,0,25c0,0.7,0,1.4,0,2
			c0,0.3-0.1,0.5-0.1,0.8c0,0.2-0.3,0.5-0.5,0.6c-0.2,0-0.4,0.1-0.6,0.1c-0.8,0-1.5,0-2.3,0c-8.3,0-16.7,0-25,0c-0.7,0-1.4,0-2,0
			c-0.2,0-0.4,0-0.6,0.1c-0.3,0-0.7,0.4-0.7,0.6c0,0.2-0.1,0.4-0.1,0.6c0,0.7,0,1.4,0,2c0,8.4,0,16.8,0,25.2c0,0.6,0,1.2,0,1.8
			c0,0.3,0,0.5-0.1,0.8c0,0.5-0.4,0.9-0.9,0.9c-0.2,0-0.4,0.1-0.6,0.1c-0.6,0-1.2,0-1.8,0c-8.9,0-17.9,0-26.8,0c-20.7,0-41.4,0-62,0
			C303.5,482.4,280.8,482.4,258,482.4C258,482.4,258,482.4,258,482.4z M354.3,385.8c0.9,0,1.8,0.1,2.7,0.1c8.6,0,17.2,0,25.8,0
			c0.6,0,1.2,0,1.8,0c0.3,0,0.5-0.1,0.8-0.1c0.4-0.1,0.7-0.4,0.8-0.8c0-0.3,0.1-0.7,0.1-1c0-1,0-1.9,0-2.9c0-9.1,0-18.2,0-27.2
			c0-9.7,0-19.4,0-29.1c0-0.5,0-1,0-1.4c0-0.2-0.1-0.4-0.1-0.6c-0.1-0.3-0.4-0.6-0.7-0.7c-0.2-0.1-0.4-0.1-0.6-0.1c-0.5,0-1,0-1.4,0
			c-8.7,0-17.5,0-26.2,0c-0.5,0-1,0-1.4,0c-0.2,0-0.4,0.1-0.6,0.1c-0.3,0.1-0.6,0.4-0.7,0.7c0,0.2-0.1,0.4-0.1,0.6
			c0,0.5,0,1.1,0,1.6c0,10.4,0,20.8,0,31.1c0,9.1,0,18.2,0,27.2C354.3,384.2,354.3,385,354.3,385.8c-0.9,0-1.7,0-2.6,0
			c-8.7,0-17.3,0-26,0c-0.7,0-1.4,0-2,0c-0.3,0-0.5,0.1-0.8,0.1c-0.3,0.1-0.5,0.3-0.6,0.5c-0.1,0.2-0.2,0.4-0.2,0.6
			c0,0.7-0.1,1.5-0.1,2.2c0,8.7,0,17.3,0,26c0,1,0,1.9,0,2.9c-1,0-1.9-0.1-2.9-0.1c-12.1,0-24.3,0-36.4,0c-17.9,0-35.8,0-53.6,0
			c-0.6,0-1.2,0-1.8,0c-0.2,0-0.4,0-0.6-0.1c-0.4-0.1-0.7-0.4-0.8-0.8c0-0.3-0.1-0.5-0.1-0.8c0-0.7,0-1.4,0-2c0-8.3,0-16.5,0-24.8
			c0-0.7,0-1.4,0-2c0-0.3,0-0.5-0.1-0.8c0-0.4-0.4-0.8-0.8-0.8c-0.2,0-0.4-0.1-0.6-0.1c-0.6,0-1.2,0-1.8,0c-8.5,0-16.9,0-25.4,0
			c-0.3,0-0.7,0-1,0c-0.8,0-1.5,0-2.2,0.2c-0.6,0.1-1.2,0.2-1.8,0.2c-0.6,0-1.2,0-1.8,0c-8.2,0-16.4,0-24.6,0c-0.7,0-1.4,0-2,0
			c-0.3,0-0.5,0.1-0.8,0.1c-0.3,0.1-0.6,0.4-0.7,0.7c-0.1,0.2-0.1,0.4-0.1,0.6c0,0.5,0,1,0,1.4c0,8.6,0,17.2,0,25.8c0,0.5,0,1,0,1.4
			c0,0.2,0.1,0.4,0.1,0.6c0.1,0.3,0.4,0.6,0.7,0.7c0.3,0.1,0.5,0.1,0.8,0.1c0.7,0,1.4,0,2,0c8.1,0,16.2,0,24.4,0c0.7,0,1.4,0,2,0
			c0.3,0,0.5,0.1,0.8,0.1c0.5,0.1,0.9,0.5,0.9,1c0,0.3,0.1,0.5,0.1,0.8c0,0.7,0,1.4,0,2c0,8.2,0,16.4,0,24.6c0,0.7,0,1.4,0,2
			c0,0.3,0,0.5,0.1,0.8c0,0.4,0.4,0.7,0.8,0.8c0.2,0,0.4,0.1,0.6,0.1c0.5,0,1.1,0,1.6,0c10.9,0,21.7,0,32.6,0c10.1,0,20.2,0,30.3,0
			c10.6,0,21.2,0,31.7,0c9.1,0,18.2,0,27.2,0c0.6,0,1.2,0,1.8,0c0.2,0,0.4-0.1,0.6-0.1c0.3-0.1,0.6-0.4,0.7-0.7
			c0-0.2,0.1-0.4,0.1-0.6c0-0.5,0-1.1,0-1.6c0-8.9,0-17.7,0-26.6c0-0.7,0-1.5-0.1-2.2c1,0,1.9,0,2.9,0c8.6,0,17.2,0,25.7,0
			c0.7,0,1.4,0,2,0c0.3,0,0.5,0,0.8-0.1c0.4,0,0.8-0.4,0.8-0.8c0.1-0.6,0.1-1.2,0.1-1.8C354.3,405.6,354.3,395.7,354.3,385.8z
			 M193.7,257.5c0-9.5,0-19,0-28.4c0-0.7,0-1.4,0-2c0-0.3,0-0.5-0.1-0.8c0-0.4-0.4-0.8-0.8-0.8c-0.7-0.1-1.4-0.1-2-0.1
			c-8.8,0-17.6,0-26.4,0c-0.5,0-1.1,0-1.6,0c-0.2,0-0.4,0-0.6,0.1c-0.3,0.1-0.6,0.3-0.7,0.7c-0.1,0.3-0.1,0.5-0.1,0.8
			c0,0.7,0,1.4,0,2c0,19,0,37.9,0,56.9c0,0.5,0,1.1,0,1.6c0,0.3,0,0.5,0,0.8c0,0.1,0,0.3,0.1,0.4c0.1,0.4,0.5,0.8,0.8,0.8
			c0.2,0,0.4,0.1,0.6,0.1c0.5,0,1.1,0,1.6,0c8.7,0,17.5,0,26.2,0c0.5,0,1.1,0,1.6,0c0.2,0,0.4-0.1,0.6-0.1c0.3,0,0.6-0.4,0.7-0.7
			c0-0.2,0.1-0.4,0.1-0.6c0-0.7,0-1.4,0-2C193.7,276.6,193.7,267.1,193.7,257.5z M354.3,225.5C354.3,225.5,354.3,225.5,354.3,225.5
			c0-0.8,0-1.6,0-2.5c0-8.7,0-17.3,0-26c0-0.7,0-1.4,0-2c0-0.3,0-0.5-0.1-0.8c0-0.3-0.4-0.7-0.7-0.7c-0.2,0-0.4-0.1-0.6-0.1
			c-0.5,0-1.1,0-1.6,0c-8.8,0-17.6,0-26.4,0c-0.5,0-1,0-1.4,0c-0.2,0-0.4,0-0.6,0.1c-0.4,0.1-0.6,0.3-0.7,0.6
			c-0.1,0.2-0.1,0.4-0.1,0.6c0,0.6,0,1.2,0,1.8c0,19.2,0,38.5,0,57.7c0,0.5,0,1.1,0,1.6c0,0.3,0.1,0.5,0.1,0.8
			c0.1,0.3,0.3,0.6,0.7,0.7c0.3,0.1,0.5,0.1,0.8,0.1c0.7,0,1.4,0,2,0c8.4,0,16.8,0,25.2,0c0.3,0,0.7,0,1,0c0.2,0,0.4,0,0.6,0
			c1.5,0,1.9-0.3,1.9-1.8c0-0.5,0-1.1,0-1.6c0-3.7,0-7.4,0-11.1C354.3,237.3,354.3,231.4,354.3,225.5z"/>
		<path class="st0" d="M321.9,418.2c0,0.7,0.1,1.5,0.1,2.2c0,8.9,0,17.7,0,26.6c0,0.5,0,1.1,0,1.6c0,0.2-0.1,0.4-0.1,0.6
			c0,0.3-0.4,0.6-0.7,0.7c-0.2,0-0.4,0.1-0.6,0.1c-0.6,0-1.2,0-1.8,0c-9.1,0-18.2,0-27.2,0c-10.6,0-21.2,0-31.7,0
			c-10.1,0-20.2,0-30.3,0c-10.9,0-21.7,0-32.6,0c-0.5,0-1.1,0-1.6,0c-0.2,0-0.4,0-0.6-0.1c-0.4,0-0.8-0.4-0.8-0.8
			c0-0.3-0.1-0.5-0.1-0.8c0-0.7,0-1.4,0-2c0-8.2,0-16.4,0-24.6c0-0.7,0-1.4,0-2c0-0.3,0-0.5-0.1-0.8c-0.1-0.5-0.5-0.9-0.9-1
			c-0.3-0.1-0.5-0.1-0.8-0.1c-0.7,0-1.4,0-2,0c-8.1,0-16.2,0-24.4,0c-0.7,0-1.4,0-2,0c-0.3,0-0.5,0-0.8-0.1
			c-0.3-0.1-0.6-0.3-0.7-0.7c-0.1-0.2-0.1-0.4-0.1-0.6c0-0.5,0-1,0-1.4c0-8.6,0-17.2,0-25.8c0-0.5,0-1,0-1.4c0-0.2,0-0.4,0.1-0.6
			c0.1-0.3,0.3-0.6,0.7-0.7c0.3-0.1,0.5-0.1,0.8-0.1c0.7,0,1.4,0,2,0c8.2,0,16.4,0,24.6,0c0.6,0,1.2,0,1.8,0c0.6,0,1.2,0,1.8-0.2
			c0.7-0.2,1.5-0.2,2.2-0.2c0.3,0,0.7,0,1,0c8.5,0,16.9,0,25.4,0c0.6,0,1.2,0,1.8,0c0.2,0,0.4,0.1,0.6,0.1c0.4,0.1,0.8,0.5,0.8,0.8
			c0,0.3,0.1,0.5,0.1,0.8c0,0.7,0,1.4,0,2c0,8.3,0,16.5,0,24.8c0,0.7,0,1.4,0,2c0,0.3,0,0.5,0.1,0.8c0,0.4,0.4,0.8,0.8,0.8
			c0.2,0,0.4,0.1,0.6,0.1c0.6,0,1.2,0,1.8,0c17.9,0,35.8,0,53.6,0c12.1,0,24.3,0,36.4,0C320,418.2,321,418.2,321.9,418.2
			L321.9,418.2z"/>
		<path class="st0" d="M193.7,257.5c0,9.5,0,19.1,0,28.6c0,0.7,0,1.4,0,2c0,0.2-0.1,0.4-0.1,0.6c-0.1,0.3-0.4,0.7-0.7,0.7
			c-0.2,0-0.4,0.1-0.6,0.1c-0.5,0-1.1,0-1.6,0c-8.7,0-17.5,0-26.2,0c-0.5,0-1.1,0-1.6,0c-0.2,0-0.4,0-0.6-0.1
			c-0.4-0.1-0.8-0.4-0.8-0.8c0-0.1-0.1-0.3-0.1-0.4c0-0.3,0-0.5,0-0.8c0-0.5,0-1.1,0-1.6c0-19,0-37.9,0-56.9c0-0.7,0-1.4,0-2
			c0-0.3,0-0.5,0.1-0.8c0.1-0.3,0.4-0.6,0.7-0.7c0.2-0.1,0.4-0.1,0.6-0.1c0.5,0,1.1,0,1.6,0c8.8,0,17.6,0,26.4,0c0.7,0,1.4,0,2,0.1
			c0.4,0.1,0.8,0.4,0.8,0.8c0,0.3,0.1,0.5,0.1,0.8c0,0.7,0,1.4,0,2C193.7,238.6,193.7,248,193.7,257.5z"/>
		<path class="st0" d="M354.3,225.5c0,5.9,0,11.7,0,17.6c0,3.7,0,7.4,0,11.1c0,0.5,0,1.1,0,1.6c0,1.4-0.4,1.8-1.9,1.8
			c-0.2,0-0.4,0-0.6,0c-0.3,0-0.7,0-1,0c-8.4,0-16.8,0-25.2,0c-0.7,0-1.4,0-2,0c-0.3,0-0.5-0.1-0.8-0.1c-0.3-0.1-0.6-0.4-0.7-0.7
			c-0.1-0.3-0.1-0.5-0.1-0.8c0-0.5,0-1.1,0-1.6c0-19.2,0-38.5,0-57.7c0-0.6,0-1.2,0-1.8c0-0.2,0.1-0.4,0.1-0.6
			c0.1-0.3,0.4-0.6,0.7-0.6c0.2,0,0.4-0.1,0.6-0.1c0.5,0,1,0,1.4,0c8.8,0,17.6,0,26.4,0c0.5,0,1.1,0,1.6,0c0.2,0,0.4,0.1,0.6,0.1
			c0.3,0.1,0.6,0.4,0.7,0.7c0,0.3,0.1,0.5,0.1,0.8c0,0.7,0,1.4,0,2c0,8.7,0,17.3,0,26C354.3,223.9,354.3,224.7,354.3,225.5
			C354.3,225.5,354.3,225.5,354.3,225.5z"/>
		<path class="st0" d="M354.3,385.9c0-0.8,0-1.6,0-2.5c0-9.1,0-18.2,0-27.2c0.1-10.4,0-20.8,0-31.1c0-0.5,0-1.1,0-1.6
			c0-0.2,0.1-0.4,0.1-0.6c0-0.3,0.4-0.7,0.7-0.7c0.2,0,0.4-0.1,0.6-0.1c0.5,0,1,0,1.4,0c8.7,0,17.5,0,26.2,0c0.5,0,1,0,1.4,0
			c0.2,0,0.4,0,0.6,0.1c0.3,0.1,0.6,0.3,0.7,0.7c0.1,0.2,0.1,0.4,0.1,0.6c0,0.5,0,1,0,1.4c0,9.7,0,19.4,0,29.1c0,9.1,0,18.2,0,27.2
			c0,1,0,1.9,0,2.9c0,0.3,0,0.7-0.1,1c0,0.4-0.4,0.8-0.8,0.8c-0.3,0-0.5,0.1-0.8,0.1c-0.6,0-1.2,0-1.8,0c-8.6,0-17.2,0-25.8,0
			C356.1,385.9,355.2,385.8,354.3,385.9C354.3,385.8,354.3,385.9,354.3,385.9z"/>
		<path class="st0" d="M322,418.2c0-1,0-1.9,0-2.9c0-8.7,0-17.3,0-26c0-0.7,0-1.5,0.1-2.2c0-0.2,0.1-0.4,0.2-0.6
			c0.1-0.3,0.3-0.4,0.6-0.5c0.3-0.1,0.5-0.1,0.8-0.1c0.7,0,1.4,0,2,0c8.7,0,17.3,0,26,0c0.9,0,1.8,0,2.7,0c0,0,0,0,0,0
			c0,9.9,0,19.7,0,29.6c0,0.6,0,1.2-0.1,1.8c-0.1,0.4-0.5,0.7-0.8,0.8c-0.3,0-0.5,0.1-0.8,0.1c-0.7,0-1.4,0-2,0
			c-8.6,0-17.2,0-25.7,0C323.8,418.2,322.9,418.2,322,418.2C321.9,418.2,322,418.2,322,418.2z"/>
	</g>
</g>
</svg>
